<svg width="20" height="20" viewBox="0 0 20 20" fill="none" xmlns="http://www.w3.org/2000/svg">
<path d="M5.625 3.75C5.12772 3.75 4.65081 3.94754 4.29917 4.29917C3.94754 4.65081 3.75 5.12772 3.75 5.625V14.375C3.75 14.8723 3.94754 15.3492 4.29917 15.7008C4.65081 16.0525 5.12772 16.25 5.625 16.25H14.375C14.8723 16.25 15.3492 16.0525 15.7008 15.7008C16.0525 15.3492 16.25 14.8723 16.25 14.375V11.5875C16.25 11.4217 16.3158 11.2628 16.4331 11.1456C16.5503 11.0283 16.7092 10.9625 16.875 10.9625C17.0408 10.9625 17.1997 11.0283 17.3169 11.1456C17.4342 11.2628 17.5 11.4217 17.5 11.5875V14.375C17.5 15.2038 17.1708 15.9987 16.5847 16.5847C15.9987 17.1708 15.2038 17.5 14.375 17.5H5.625C4.7962 17.5 4.00134 17.1708 3.41529 16.5847C2.82924 15.9987 2.5 15.2038 2.5 14.375V5.625C2.5 4.7962 2.82924 4.00134 3.41529 3.41529C4.00134 2.82924 4.7962 2.5 5.625 2.5H8.4125C8.57826 2.5 8.73723 2.56585 8.85444 2.68306C8.97165 2.80027 9.0375 2.95924 9.0375 3.125C9.0375 3.29076 8.97165 3.44973 8.85444 3.56694C8.73723 3.68415 8.57826 3.75 8.4125 3.75H5.625ZM10.9625 3.125C10.9625 2.95924 11.0283 2.80027 11.1456 2.68306C11.2628 2.56585 11.4217 2.5 11.5875 2.5H16.875C17.0408 2.5 17.1997 2.56585 17.3169 2.68306C17.4342 2.80027 17.5 2.95924 17.5 3.125V8.4125C17.5 8.57826 17.4342 8.73723 17.3169 8.85444C17.1997 8.97165 17.0408 9.0375 16.875 9.0375C16.7092 9.0375 16.5503 8.97165 16.4331 8.85444C16.3158 8.73723 16.25 8.57826 16.25 8.4125V4.635L12.0288 8.855C11.9711 8.91469 11.9021 8.96231 11.8259 8.99506C11.7496 9.02782 11.6676 9.04506 11.5846 9.04578C11.5016 9.0465 11.4193 9.03069 11.3425 8.99926C11.2657 8.96784 11.1959 8.92143 11.1373 8.86275C11.0786 8.80406 11.0322 8.73428 11.0007 8.65747C10.9693 8.58066 10.9535 8.49836 10.9542 8.41537C10.9549 8.33239 10.9722 8.25037 11.0049 8.17412C11.0377 8.09787 11.0853 8.0289 11.145 7.97125L15.3663 3.75H11.5863C11.4205 3.75 11.2615 3.68415 11.1443 3.56694C11.0271 3.44973 10.9613 3.29076 10.9613 3.125" fill="#801323"/>
</svg>
