<svg width="20" height="20" viewBox="0 0 20 20" fill="none" xmlns="http://www.w3.org/2000/svg">
<g clip-path="url(#clip0_1986_4596)">
<path fill-rule="evenodd" clip-rule="evenodd" d="M18.75 3.75C18.75 5.825 17.075 7.5 15 7.5C12.925 7.5 11.25 5.825 11.25 3.75C11.25 1.675 12.925 0 15 0C17.075 0 18.75 1.675 18.75 3.75ZM15 6.25C15.3284 6.25008 15.6536 6.18548 15.957 6.05989C16.2604 5.9343 16.5361 5.75017 16.7684 5.51803C17.0007 5.28588 17.1849 5.01026 17.3107 4.7069C17.4364 4.40354 17.5012 4.07839 17.5013 3.75C17.5013 3.42161 17.4367 3.09643 17.3111 2.793C17.1855 2.48958 17.0014 2.21387 16.7693 1.98161C16.5371 1.74935 16.2615 1.56508 15.9582 1.43934C15.6548 1.31359 15.3296 1.24883 15.0013 1.24875C14.338 1.24858 13.7019 1.51188 13.2329 1.98072C12.7638 2.44957 12.5002 3.08554 12.5 3.74875C12.4998 4.41196 12.7631 5.04807 13.232 5.51714C13.7008 5.98622 14.3368 6.24983 15 6.25Z" fill="white"/>
<path d="M11.175 10.3625C11.9913 9.45625 13.25 8.75 15 8.75C16.75 8.75 18.0125 9.45625 18.825 10.3625C19.62 11.2462 20.0013 12.325 20.0013 13.125C20.0013 13.2908 19.9354 13.4497 19.8182 13.5669C19.701 13.6842 19.542 13.75 19.3763 13.75C19.2105 13.75 19.0515 13.6842 18.9343 13.5669C18.8171 13.4497 18.7513 13.2908 18.7513 13.125C18.7513 12.67 18.5075 11.8788 17.8963 11.2C17.3063 10.5438 16.3838 10.0013 14.9963 10.0013C13.6088 10.0013 12.6963 10.545 12.0963 11.2C11.485 11.8788 11.2413 12.675 11.2413 13.125C11.2413 13.2908 11.1754 13.4497 11.0582 13.5669C10.941 13.6842 10.782 13.75 10.6163 13.75C10.4505 13.75 10.2915 13.6842 10.1743 13.5669C10.0571 13.4497 9.99127 13.2908 9.99127 13.125C9.99127 12.33 10.3725 11.25 11.1675 10.3625H11.175Z" fill="white"/>
<path fill-rule="evenodd" clip-rule="evenodd" d="M8.75 10C8.75 12.075 7.075 13.75 5 13.75C2.925 13.75 1.25 12.075 1.25 10C1.25 7.925 2.925 6.25 5 6.25C7.075 6.25 8.75 7.925 8.75 10ZM5 12.5C5.66321 12.5002 6.29932 12.2369 6.76839 11.768C7.23747 11.2992 7.50108 10.6632 7.50125 10C7.50142 9.33679 7.23812 8.70068 6.76928 8.23161C6.30043 7.76253 5.66446 7.49892 5.00125 7.49875C4.33804 7.49858 3.70193 7.76188 3.23286 8.23072C2.76378 8.69957 2.50017 9.33554 2.5 9.99875C2.49983 10.662 2.76313 11.2981 3.23197 11.7671C3.70082 12.2362 4.33679 12.4998 5 12.5Z" fill="white"/>
<path d="M1.17624 16.6242C1.99249 15.718 3.25124 15.0117 5.00124 15.0117C6.75124 15.0117 8.01374 15.718 8.82624 16.6242C9.62124 17.508 10.0025 18.5867 10.0025 19.3867C10.0025 19.5525 9.93664 19.7114 9.81944 19.8287C9.70222 19.9459 9.54325 20.0117 9.37749 20.0117C9.21173 20.0117 9.05276 19.9459 8.93555 19.8287C8.81834 19.7114 8.75249 19.5525 8.75249 19.3867C8.75249 18.9317 8.50874 18.1405 7.89749 17.4617C7.30749 16.8055 6.38499 16.2617 4.99749 16.2617C3.60999 16.2617 2.69749 16.8055 2.09749 17.4617C1.48624 18.1405 1.24249 18.9367 1.24249 19.3867C1.24249 19.5525 1.17664 19.7114 1.05943 19.8287C0.942224 19.9459 0.783253 20.0117 0.617493 20.0117C0.451732 20.0117 0.292761 19.9459 0.175551 19.8287C0.0583407 19.7114 -0.00750732 19.5525 -0.00750732 19.3867C-0.00750732 18.5917 0.373743 17.5117 1.16874 16.6242H1.17624Z" fill="white"/>
</g>
<defs>
<clipPath id="clip0_1986_4596">
<rect width="20" height="20" fill="white"/>
</clipPath>
</defs>
</svg>
