<svg width="20" height="20" viewBox="0 0 20 20" fill="none" xmlns="http://www.w3.org/2000/svg">
<path d="M10 18.3346L8.33335 13.3346H1.66669L3.33335 18.3346H10ZM10 18.3346H13.3334M10 10.8346V10.418C10 8.8463 10 8.0613 9.51169 7.57297C9.02335 7.08464 8.23835 7.08464 6.66669 7.08464C5.09502 7.08464 4.31002 7.08464 3.82169 7.57297C3.33335 8.0613 3.33335 8.8463 3.33335 10.418V10.8346M11.6667 14.5846H16.6667C17.1087 14.5846 17.5326 14.7602 17.8452 15.0728C18.1578 15.3854 18.3334 15.8093 18.3334 16.2513V16.668C18.3334 17.11 18.1578 17.5339 17.8452 17.8465C17.5326 18.159 17.1087 18.3346 16.6667 18.3346H15.8334M15.8334 10.8346C15.8334 11.2767 15.6578 11.7006 15.3452 12.0131C15.0326 12.3257 14.6087 12.5013 14.1667 12.5013C13.7247 12.5013 13.3007 12.3257 12.9882 12.0131C12.6756 11.7006 12.5 11.2767 12.5 10.8346C12.5 10.3926 12.6756 9.96868 12.9882 9.65612C13.3007 9.34356 13.7247 9.16797 14.1667 9.16797C14.6087 9.16797 15.0326 9.34356 15.3452 9.65612C15.6578 9.96868 15.8334 10.3926 15.8334 10.8346ZM8.33335 3.33464C8.33335 3.77666 8.15776 4.20059 7.8452 4.51315C7.53264 4.82571 7.10871 5.0013 6.66669 5.0013C6.22466 5.0013 5.80074 4.82571 5.48818 4.51315C5.17561 4.20059 5.00002 3.77666 5.00002 3.33464C5.00002 2.89261 5.17561 2.46868 5.48818 2.15612C5.80074 1.84356 6.22466 1.66797 6.66669 1.66797C7.10871 1.66797 7.53264 1.84356 7.8452 2.15612C8.15776 2.46868 8.33335 2.89261 8.33335 3.33464Z" stroke="white" stroke-width="1.25" stroke-linecap="round" stroke-linejoin="round"/>
</svg>
