<svg width="20" height="20" viewBox="0 0 20 20" fill="none" xmlns="http://www.w3.org/2000/svg">
<path d="M16.0984 11.2513H12.8692C12.4411 11.2509 12.0304 11.4202 11.727 11.7222C11.4236 12.0241 11.2524 12.4341 11.2509 12.8621V16.0913C11.2506 16.3039 11.2923 16.5144 11.3736 16.7109C11.4548 16.9073 11.574 17.0858 11.7244 17.2361C11.8747 17.3864 12.0532 17.5056 12.2496 17.5869C12.4461 17.6681 12.6566 17.7099 12.8692 17.7096H16.0984C16.5263 17.7079 16.936 17.5365 17.2378 17.2332C17.5396 16.9298 17.7088 16.5192 17.7084 16.0913V12.8621C17.7086 12.6506 17.6671 12.4412 17.5862 12.2458C17.5054 12.0503 17.3868 11.8728 17.2373 11.7232C17.0877 11.5737 16.9102 11.4551 16.7147 11.3742C16.5193 11.2934 16.3098 11.2519 16.0984 11.2521M7.13085 11.2513H3.90169C3.47385 11.2537 3.06436 11.4254 2.76269 11.7288C2.46101 12.0322 2.29168 12.4426 2.29169 12.8705V16.0996C2.29147 16.3111 2.33296 16.5206 2.4138 16.716C2.49463 16.9114 2.61321 17.089 2.76276 17.2386C2.9123 17.3881 3.08988 17.5067 3.28531 17.5875C3.48074 17.6684 3.6902 17.7099 3.90169 17.7096H7.13085C7.55876 17.7101 7.96938 17.5409 8.27274 17.2391C8.57609 16.9373 8.74742 16.5275 8.74919 16.0996V12.8705C8.74941 12.6579 8.7077 12.4473 8.62645 12.2509C8.5452 12.0545 8.426 11.876 8.27568 11.7256C8.12536 11.5753 7.94687 11.4561 7.75042 11.3749C7.55398 11.2936 7.34344 11.2519 7.13085 11.2521M7.13085 2.29297H3.90169C3.6902 2.29275 3.48074 2.33424 3.28531 2.41508C3.08988 2.49591 2.9123 2.61449 2.76276 2.76404C2.61321 2.91358 2.49463 3.09116 2.4138 3.28659C2.33296 3.48202 2.29147 3.69148 2.29169 3.90297V7.13214C2.29124 7.56004 2.46046 7.97067 2.76225 8.27402C3.06404 8.57737 3.47379 8.7487 3.90169 8.75047H7.13085C7.34344 8.75069 7.55398 8.70898 7.75042 8.62773C7.94687 8.54648 8.12536 8.42728 8.27568 8.27696C8.426 8.12664 8.5452 7.94815 8.62645 7.75171C8.7077 7.55526 8.74941 7.34472 8.74919 7.13214V3.90297C8.74742 3.47507 8.57609 3.06532 8.27274 2.76353C7.96938 2.46174 7.55876 2.29252 7.13085 2.29297ZM16.0984 2.29297H12.8692C12.4413 2.29252 12.0307 2.46174 11.7273 2.76353C11.424 3.06532 11.2526 3.47507 11.2509 3.90297V7.13214C11.2511 7.56128 11.4216 7.97278 11.7251 8.27623C12.0285 8.57968 12.44 8.75025 12.8692 8.75047H16.0984C16.5263 8.7487 16.936 8.57737 17.2378 8.27402C17.5396 7.97067 17.7088 7.56004 17.7084 7.13214V3.90297C17.7086 3.69148 17.6671 3.48202 17.5862 3.28659C17.5054 3.09116 17.3868 2.91358 17.2373 2.76404C17.0877 2.61449 16.9102 2.49591 16.7147 2.41508C16.5193 2.33424 16.3098 2.29275 16.0984 2.29297Z" stroke="white" stroke-width="1.5" stroke-linecap="round" stroke-linejoin="round"/>
</svg>
