<svg width="20" height="20" viewBox="0 0 20 20" fill="none" xmlns="http://www.w3.org/2000/svg">
<path d="M5.42833 1.66602C4.34167 1.77352 3.61 2.01518 3.06333 2.56268C2.08417 3.54352 2.08417 5.12268 2.08417 8.28185V11.6318C2.08417 14.7902 2.08417 16.3702 3.06333 17.3518C4.0425 18.3335 5.61917 18.3327 8.77167 18.3327H10.4442C13.5967 18.3327 15.1733 18.3327 16.1525 17.3518C17.0417 16.4602 17.1242 15.0877 17.1317 12.4802" stroke="#0D0C12" stroke-width="1.25" stroke-linecap="round" stroke-linejoin="round"/>
<path d="M8.77169 5.83176L9.60753 8.74843C10.0742 9.67343 10.66 9.91509 12.1159 9.99843C13.2734 9.97009 13.945 9.83343 14.5184 9.3351C14.9092 8.9951 15.0859 8.4826 15.1717 7.9726L15.4584 6.24843M17.5484 4.58176V8.74843M7.16753 4.10926C8.49003 3.01176 9.66836 2.4226 12.1125 1.77426C12.3883 1.70146 12.6784 1.7029 12.9534 1.77843C15.1167 2.37343 16.285 2.90176 17.85 4.07676C17.9167 4.12676 17.9367 4.2201 17.89 4.28926C17.3792 5.04093 16.2384 5.6501 13.44 6.7351C12.8572 6.95937 12.2112 6.9558 11.6309 6.7251C8.65086 5.54176 7.28086 4.90843 7.11419 4.25093C7.10878 4.22469 7.11091 4.19745 7.12035 4.17237C7.12979 4.1473 7.14615 4.12542 7.16753 4.10926Z" stroke="#0D0C12" stroke-width="1.25" stroke-linecap="round" stroke-linejoin="round"/>
</svg>
