<svg width="21" height="20" viewBox="0 0 21 20" fill="none" xmlns="http://www.w3.org/2000/svg">
<path d="M10.75 18.3327L9.08332 13.3327H2.41666L4.08332 18.3327H10.75ZM10.75 18.3327H14.0833M10.75 10.8327V10.416C10.75 8.84435 10.75 8.05935 10.2617 7.57102C9.77332 7.08268 8.98832 7.08268 7.41666 7.08268C5.84499 7.08268 5.05999 7.08268 4.57166 7.57102C4.08332 8.05935 4.08332 8.84435 4.08332 10.416V10.8327M12.4167 14.5827H17.4167C17.8587 14.5827 18.2826 14.7583 18.5952 15.0708C18.9077 15.3834 19.0833 15.8073 19.0833 16.2493V16.666C19.0833 17.108 18.9077 17.532 18.5952 17.8445C18.2826 18.1571 17.8587 18.3327 17.4167 18.3327H16.5833M16.5833 10.8327C16.5833 11.2747 16.4077 11.6986 16.0952 12.0112C15.7826 12.3238 15.3587 12.4993 14.9167 12.4993C14.4746 12.4993 14.0507 12.3238 13.7381 12.0112C13.4256 11.6986 13.25 11.2747 13.25 10.8327C13.25 10.3907 13.4256 9.96673 13.7381 9.65417C14.0507 9.34161 14.4746 9.16602 14.9167 9.16602C15.3587 9.16602 15.7826 9.34161 16.0952 9.65417C16.4077 9.96673 16.5833 10.3907 16.5833 10.8327ZM9.08332 3.33268C9.08332 3.77471 8.90773 4.19863 8.59517 4.51119C8.28261 4.82375 7.85868 4.99935 7.41666 4.99935C6.97463 4.99935 6.55071 4.82375 6.23815 4.51119C5.92558 4.19863 5.74999 3.77471 5.74999 3.33268C5.74999 2.89065 5.92558 2.46673 6.23815 2.15417C6.55071 1.84161 6.97463 1.66602 7.41666 1.66602C7.85868 1.66602 8.28261 1.84161 8.59517 2.15417C8.90773 2.46673 9.08332 2.89065 9.08332 3.33268Z" stroke="#0D0C12" stroke-width="1.25" stroke-linecap="round" stroke-linejoin="round"/>
</svg>
