<svg width="21" height="20" viewBox="0 0 21 20" fill="none" xmlns="http://www.w3.org/2000/svg">
<path d="M17.125 15.9913L15.875 14.7413V13.125H14.625V15.2587L16.2413 16.875L17.125 15.9913Z" fill="#0D0C12"/>
<path d="M15.25 19.375C12.8375 19.375 10.875 17.4125 10.875 15C10.875 12.5875 12.8375 10.625 15.25 10.625C17.6625 10.625 19.625 12.5875 19.625 15C19.625 17.4125 17.6625 19.375 15.25 19.375ZM15.25 11.875C13.5269 11.875 12.125 13.2769 12.125 15C12.125 16.7231 13.5269 18.125 15.25 18.125C16.9731 18.125 18.375 16.7231 18.375 15C18.375 13.2769 16.9731 11.875 15.25 11.875ZM17.75 9.375H19V3.125C19 2.43562 18.4394 1.875 17.75 1.875H15.875V3.125H17.75V9.375Z" fill="#0D0C12"/>
<path d="M5.875 9.375C6.56536 9.375 7.125 8.81536 7.125 8.125C7.125 7.43464 6.56536 6.875 5.875 6.875C5.18464 6.875 4.625 7.43464 4.625 8.125C4.625 8.81536 5.18464 9.375 5.875 9.375Z" fill="#0D0C12"/>
<path d="M10.25 9.375C10.9404 9.375 11.5 8.81536 11.5 8.125C11.5 7.43464 10.9404 6.875 10.25 6.875C9.55964 6.875 9 7.43464 9 8.125C9 8.81536 9.55964 9.375 10.25 9.375Z" fill="#0D0C12"/>
<path d="M14.625 9.375C15.3154 9.375 15.875 8.81536 15.875 8.125C15.875 7.43464 15.3154 6.875 14.625 6.875C13.9346 6.875 13.375 7.43464 13.375 8.125C13.375 8.81536 13.9346 9.375 14.625 9.375Z" fill="#0D0C12"/>
<path d="M4.625 14.375H2.75C2.06062 14.375 1.5 13.8144 1.5 13.125V3.125C1.5 2.43562 2.06062 1.875 2.75 1.875H4.625V3.125H2.75V13.125H4.625V14.375Z" fill="#0D0C12"/>
</svg>
