<svg width="21" height="20" viewBox="0 0 21 20" fill="none" xmlns="http://www.w3.org/2000/svg">
<g clip-path="url(#clip0_940_2871)">
<path fill-rule="evenodd" clip-rule="evenodd" d="M19.25 3.75C19.25 5.825 17.575 7.5 15.5 7.5C13.425 7.5 11.75 5.825 11.75 3.75C11.75 1.675 13.425 0 15.5 0C17.575 0 19.25 1.675 19.25 3.75ZM15.5 6.25C15.8284 6.25008 16.1536 6.18548 16.457 6.05989C16.7604 5.9343 17.0361 5.75017 17.2684 5.51803C17.5007 5.28588 17.6849 5.01026 17.8107 4.7069C17.9364 4.40354 18.0012 4.07839 18.0013 3.75C18.0013 3.42161 17.9367 3.09643 17.8111 2.793C17.6855 2.48958 17.5014 2.21387 17.2693 1.98161C17.0371 1.74935 16.7615 1.56508 16.4582 1.43934C16.1548 1.31359 15.8296 1.24883 15.5013 1.24875C14.838 1.24858 14.2019 1.51188 13.7329 1.98072C13.2638 2.44957 13.0002 3.08554 13 3.74875C12.9998 4.41196 13.2631 5.04807 13.732 5.51714C14.2008 5.98622 14.8368 6.24983 15.5 6.25Z" fill="#0D0C12"/>
<path d="M11.675 10.3625C12.4913 9.45625 13.75 8.75 15.5 8.75C17.25 8.75 18.5125 9.45625 19.325 10.3625C20.12 11.2462 20.5013 12.325 20.5013 13.125C20.5013 13.2908 20.4354 13.4497 20.3182 13.5669C20.201 13.6842 20.042 13.75 19.8763 13.75C19.7105 13.75 19.5515 13.6842 19.4343 13.5669C19.3171 13.4497 19.2513 13.2908 19.2513 13.125C19.2513 12.67 19.0075 11.8788 18.3963 11.2C17.8063 10.5438 16.8838 10.0013 15.4963 10.0013C14.1088 10.0013 13.1963 10.545 12.5963 11.2C11.985 11.8788 11.7413 12.675 11.7413 13.125C11.7413 13.2908 11.6754 13.4497 11.5582 13.5669C11.441 13.6842 11.282 13.75 11.1163 13.75C10.9505 13.75 10.7915 13.6842 10.6743 13.5669C10.5571 13.4497 10.4913 13.2908 10.4913 13.125C10.4913 12.33 10.8725 11.25 11.6675 10.3625H11.675Z" fill="#0D0C12"/>
<path fill-rule="evenodd" clip-rule="evenodd" d="M9.25 10C9.25 12.075 7.575 13.75 5.5 13.75C3.425 13.75 1.75 12.075 1.75 10C1.75 7.925 3.425 6.25 5.5 6.25C7.575 6.25 9.25 7.925 9.25 10ZM5.5 12.5C6.16321 12.5002 6.79932 12.2369 7.26839 11.768C7.73747 11.2992 8.00108 10.6632 8.00125 10C8.00142 9.33679 7.73812 8.70068 7.26928 8.23161C6.80043 7.76253 6.16446 7.49892 5.50125 7.49875C4.83804 7.49858 4.20193 7.76188 3.73286 8.23072C3.26378 8.69957 3.00017 9.33554 3 9.99875C2.99983 10.662 3.26313 11.2981 3.73197 11.7671C4.20082 12.2362 4.83679 12.4998 5.5 12.5Z" fill="#0D0C12"/>
<path d="M1.67624 16.6242C2.49249 15.718 3.75124 15.0117 5.50124 15.0117C7.25124 15.0117 8.51374 15.718 9.32624 16.6242C10.1212 17.508 10.5025 18.5867 10.5025 19.3867C10.5025 19.5525 10.4366 19.7114 10.3194 19.8287C10.2022 19.9459 10.0433 20.0117 9.87749 20.0117C9.71173 20.0117 9.55276 19.9459 9.43555 19.8287C9.31834 19.7114 9.25249 19.5525 9.25249 19.3867C9.25249 18.9317 9.00874 18.1405 8.39749 17.4617C7.80749 16.8055 6.88499 16.2617 5.49749 16.2617C4.10999 16.2617 3.19749 16.8055 2.59749 17.4617C1.98624 18.1405 1.74249 18.9367 1.74249 19.3867C1.74249 19.5525 1.67664 19.7114 1.55943 19.8287C1.44222 19.9459 1.28325 20.0117 1.11749 20.0117C0.951732 20.0117 0.792761 19.9459 0.675551 19.8287C0.558341 19.7114 0.492493 19.5525 0.492493 19.3867C0.492493 18.5917 0.873743 17.5117 1.66874 16.6242H1.67624Z" fill="#0D0C12"/>
</g>
<defs>
<clipPath id="clip0_940_2871">
<rect width="20" height="20" fill="white" transform="translate(0.5)"/>
</clipPath>
</defs>
</svg>
