<svg width="20" height="20" viewBox="0 0 20 20" fill="none" xmlns="http://www.w3.org/2000/svg">
<path d="M16.875 15.9913L15.625 14.7413V13.125H14.375V15.2587L15.9913 16.875L16.875 15.9913Z" fill="white"/>
<path d="M15 19.375C12.5875 19.375 10.625 17.4125 10.625 15C10.625 12.5875 12.5875 10.625 15 10.625C17.4125 10.625 19.375 12.5875 19.375 15C19.375 17.4125 17.4125 19.375 15 19.375ZM15 11.875C13.2769 11.875 11.875 13.2769 11.875 15C11.875 16.7231 13.2769 18.125 15 18.125C16.7231 18.125 18.125 16.7231 18.125 15C18.125 13.2769 16.7231 11.875 15 11.875ZM17.5 9.375H18.75V3.125C18.75 2.43562 18.1894 1.875 17.5 1.875H15.625V3.125H17.5V9.375Z" fill="white"/>
<path d="M5.625 9.375C6.31536 9.375 6.875 8.81536 6.875 8.125C6.875 7.43464 6.31536 6.875 5.625 6.875C4.93464 6.875 4.375 7.43464 4.375 8.125C4.375 8.81536 4.93464 9.375 5.625 9.375Z" fill="white"/>
<path d="M10 9.375C10.6904 9.375 11.25 8.81536 11.25 8.125C11.25 7.43464 10.6904 6.875 10 6.875C9.30964 6.875 8.75 7.43464 8.75 8.125C8.75 8.81536 9.30964 9.375 10 9.375Z" fill="white"/>
<path d="M14.375 9.375C15.0654 9.375 15.625 8.81536 15.625 8.125C15.625 7.43464 15.0654 6.875 14.375 6.875C13.6846 6.875 13.125 7.43464 13.125 8.125C13.125 8.81536 13.6846 9.375 14.375 9.375Z" fill="white"/>
<path d="M4.375 14.375H2.5C1.81062 14.375 1.25 13.8144 1.25 13.125V3.125C1.25 2.43562 1.81062 1.875 2.5 1.875H4.375V3.125H2.5V13.125H4.375V14.375Z" fill="white"/>
</svg>
