<svg width="20" height="20" viewBox="0 0 20 20" fill="none" xmlns="http://www.w3.org/2000/svg">
<path d="M15 1.66797V8.33464M18.3333 5.0013H11.6667M2.08332 5.0013C2.08332 3.71797 2.08332 3.0763 2.37248 2.60464C2.53415 2.34047 2.75582 2.1188 3.01998 1.95714C3.49082 1.66797 4.13332 1.66797 5.41665 1.66797C6.69998 1.66797 7.34165 1.66797 7.81332 1.95714C8.07749 2.1188 8.29915 2.34047 8.46082 2.60464C8.74999 3.07547 8.74999 3.71797 8.74999 5.0013C8.74999 6.28464 8.74999 6.9263 8.46082 7.39797C8.29915 7.66214 8.07749 7.8838 7.81332 8.04547C7.34249 8.33464 6.69998 8.33464 5.41665 8.33464C4.13332 8.33464 3.49165 8.33464 3.01998 8.04547C2.75601 7.88384 2.53411 7.66194 2.37248 7.39797C2.08332 6.92714 2.08332 6.28464 2.08332 5.0013ZM3.15165 12.3196C4.02415 11.4471 4.45999 11.0113 4.97665 10.8863C5.26587 10.8168 5.56743 10.8168 5.85665 10.8863C6.37332 11.0113 6.80915 11.4471 7.68165 12.3196C8.55415 13.1921 8.98999 13.628 9.11499 14.1446C9.18324 14.434 9.18324 14.7353 9.11499 15.0246C8.98999 15.5413 8.55415 15.978 7.68165 16.8496C6.80915 17.7213 6.37332 18.158 5.85665 18.283C5.56743 18.3525 5.26587 18.3525 4.97665 18.283C4.45999 18.158 4.02415 17.7221 3.15165 16.8496C2.27915 15.9771 1.84332 15.5413 1.71832 15.0246C1.64883 14.7354 1.64883 14.4339 1.71832 14.1446C1.84332 13.628 2.27915 13.1913 3.15165 12.3196ZM11.6667 15.0013C11.6667 13.718 11.6667 13.0763 11.9558 12.6046C12.1175 12.3405 12.3392 12.1188 12.6033 11.9571C13.0742 11.668 13.7167 11.668 15 11.668C16.2833 11.668 16.925 11.668 17.3975 11.9571C17.6608 12.1188 17.8825 12.3405 18.0442 12.6046C18.3333 13.0755 18.3333 13.718 18.3333 15.0013C18.3333 16.2846 18.3333 16.9263 18.0442 17.3988C17.8824 17.6622 17.6609 17.8837 17.3975 18.0455C16.925 18.3346 16.2833 18.3346 15 18.3346C13.7167 18.3346 13.075 18.3346 12.6033 18.0455C12.3394 17.8841 12.1176 17.6625 11.9558 17.3988C11.6667 16.9263 11.6667 16.2846 11.6667 15.0013Z" stroke="white" stroke-width="1.25" stroke-linecap="round" stroke-linejoin="round"/>
</svg>
