<svg xmlns="http://www.w3.org/2000/svg" width="40" height="40" viewBox="0 0 40 40" fill="none">
  <path d="M18.8083 15.3833H32.525C31.7972 13.4244 30.6355 11.6933 29.04 10.19C27.4455 8.68778 25.6267 7.68 23.5833 7.16667L18.8083 15.3833ZM15.3583 18.7167L22.2833 6.83333C21.9778 6.77778 21.5978 6.73611 21.1433 6.70833C20.6889 6.68056 20.3078 6.66667 20 6.66667C18.1667 6.66667 16.4583 7.01389 14.875 7.70833C13.2917 8.40278 11.8889 9.33333 10.6667 10.5L15.3583 18.7167ZM7.08333 23.3333H16.55L9.75833 11.5133C8.78277 12.7156 8.02388 14.0256 7.48166 15.4433C6.93944 16.8611 6.66777 18.38 6.66666 20C6.66666 20.5833 6.70166 21.1461 6.77166 21.6883C6.84166 22.2306 6.94555 22.7789 7.08333 23.3333ZM16.4817 32.8333L21.2367 24.6167H7.47333C8.20222 26.5756 9.37499 28.3067 10.9917 29.81C12.6083 31.3133 14.4389 32.3211 16.4833 32.8333M20 33.3333C21.8333 33.3333 23.5417 32.9861 25.125 32.2917C26.7083 31.5972 28.1111 30.6667 29.3333 29.5L24.6417 21.2833L17.7817 33.1033C18.0872 33.18 18.45 33.2378 18.87 33.2767C19.29 33.3156 19.6667 33.3344 20 33.3333ZM30.2433 28.4867C31.1322 27.3478 31.8694 26.0378 32.455 24.5567C33.0405 23.0756 33.3333 21.5567 33.3333 20C33.3333 19.4167 33.2989 18.8544 33.23 18.3133C33.1611 17.7722 33.0567 17.2233 32.9167 16.6667H23.45L30.2433 28.4867ZM20 35C17.9355 35 15.9911 34.6056 14.1667 33.8167C12.3422 33.0267 10.7533 31.9544 9.39999 30.6C8.04666 29.2456 6.97444 27.6567 6.18333 25.8333C5.39222 24.01 4.99777 22.0656 4.99999 20C4.99999 17.9289 5.39444 15.9828 6.18333 14.1617C6.97333 12.3394 8.04555 10.7522 9.39999 9.4C10.7544 8.04778 12.3433 6.97556 14.1667 6.18333C15.9911 5.39444 17.9355 5 20 5C22.0711 5 24.0172 5.39444 25.8383 6.18333C27.6605 6.97333 29.2483 8.04556 30.6017 9.4C31.955 10.7544 33.0267 12.3417 33.8167 14.1617C34.6056 15.9839 35 17.93 35 20C35 22.0644 34.6056 24.0089 33.8167 25.8333C33.0267 27.6578 31.9544 29.2467 30.6 30.6C29.2456 31.9533 27.6583 33.0256 25.8383 33.8167C24.0183 34.6078 22.0722 35.0022 20 35Z" fill="white"/>
</svg>