<svg xmlns="http://www.w3.org/2000/svg" width="40" height="40" viewBox="0 0 40 40" fill="none">
  <path d="M14.6667 18.666C12.8986 18.666 11.2029 17.9636 9.95263 16.7134C8.70239 15.4632 8.00001 13.7675 8.00001 11.9993V6.66602C8.00001 6.31239 8.14049 5.97326 8.39053 5.72321C8.64058 5.47316 8.97972 5.33268 9.33334 5.33268H10.6667C11.0203 5.33268 11.3594 5.19221 11.6095 4.94216C11.8595 4.69211 12 4.35297 12 3.99935C12 3.64573 11.8595 3.30659 11.6095 3.05654C11.3594 2.80649 11.0203 2.66602 10.6667 2.66602H9.33334C8.27248 2.66602 7.25506 3.08744 6.50492 3.83759C5.75477 4.58773 5.33334 5.60515 5.33334 6.66602V11.9993C5.33506 13.5057 5.70237 14.9891 6.40374 16.3221C7.10511 17.6552 8.11958 18.7981 9.36001 19.6527C10.553 20.7024 11.5203 21.9835 12.2033 23.4182C12.8863 24.853 13.2708 26.4115 13.3333 27.9993C13.3333 30.4747 14.3167 32.8487 16.067 34.599C17.8174 36.3494 20.1913 37.3327 22.6667 37.3327C25.142 37.3327 27.516 36.3494 29.2663 34.599C31.0167 32.8487 32 30.4747 32 27.9993V26.4794C33.2569 26.1548 34.3523 25.383 35.0808 24.3087C35.8094 23.2343 36.1211 21.9311 35.9575 20.6433C35.7939 19.3556 35.1663 18.1717 34.1923 17.3136C33.2183 16.4555 31.9648 15.982 30.6667 15.982C29.3686 15.982 28.115 16.4555 27.141 17.3136C26.167 18.1717 25.5394 19.3556 25.3759 20.6433C25.2123 21.9311 25.524 23.2343 26.2525 24.3087C26.9811 25.383 28.0765 26.1548 29.3333 26.4794V27.9993C29.3333 29.7675 28.631 31.4632 27.3807 32.7134C26.1305 33.9636 24.4348 34.666 22.6667 34.666C20.8986 34.666 19.2029 33.9636 17.9526 32.7134C16.7024 31.4632 16 29.7675 16 27.9993C16.066 26.4096 16.4546 24.8498 17.1422 23.4149C17.8299 21.9801 18.8022 20.7 20 19.6527C21.2355 18.7951 22.2448 17.6509 22.9414 16.318C23.638 14.9852 24.0013 13.5033 24 11.9993V6.66602C24 5.60515 23.5786 4.58773 22.8284 3.83759C22.0783 3.08744 21.0609 2.66602 20 2.66602H18.6667C18.3131 2.66602 17.9739 2.80649 17.7239 3.05654C17.4738 3.30659 17.3333 3.64573 17.3333 3.99935C17.3333 4.35297 17.4738 4.69211 17.7239 4.94216C17.9739 5.19221 18.3131 5.33268 18.6667 5.33268H20C20.3536 5.33268 20.6928 5.47316 20.9428 5.72321C21.1929 5.97326 21.3333 6.31239 21.3333 6.66602V11.9993C21.3333 12.8748 21.1609 13.7417 20.8259 14.5506C20.4908 15.3594 19.9998 16.0943 19.3807 16.7134C18.7617 17.3325 18.0267 17.8235 17.2179 18.1585C16.4091 18.4936 15.5422 18.666 14.6667 18.666ZM30.6667 23.9993C29.9594 23.9993 29.2812 23.7184 28.7811 23.2183C28.281 22.7182 28 22.0399 28 21.3327C28 20.6254 28.281 19.9472 28.7811 19.4471C29.2812 18.947 29.9594 18.666 30.6667 18.666C31.3739 18.666 32.0522 18.947 32.5523 19.4471C33.0524 19.9472 33.3333 20.6254 33.3333 21.3327C33.3333 22.0399 33.0524 22.7182 32.5523 23.2183C32.0522 23.7184 31.3739 23.9993 30.6667 23.9993Z" fill="white"/>
</svg>