<svg xmlns="http://www.w3.org/2000/svg" width="40" height="40" viewBox="0 0 40 40" fill="none">
  <path fill-rule="evenodd" clip-rule="evenodd" d="M20.0833 2.08398H19.9166C18.81 2.08398 17.855 2.08398 17.09 2.18732C16.2716 2.29732 15.485 2.54565 14.8483 3.18232C14.2116 3.81898 13.9633 4.60565 13.8533 5.42398C13.75 6.18898 13.75 7.14398 13.75 8.25232V12.2973C13.348 12.1573 12.9256 12.0852 12.5 12.084H7.49998C7.00752 12.084 6.51989 12.181 6.06492 12.3694C5.60995 12.5579 5.19655 12.8341 4.84833 13.1823C4.50011 13.5306 4.22389 13.944 4.03543 14.3989C3.84698 14.8539 3.74998 15.3415 3.74998 15.834V35.4173H3.33331C3.00179 35.4173 2.68385 35.549 2.44943 35.7834C2.21501 36.0179 2.08331 36.3358 2.08331 36.6673C2.08331 36.9988 2.21501 37.3168 2.44943 37.5512C2.68385 37.7856 3.00179 37.9173 3.33331 37.9173H36.6666C36.9982 37.9173 37.3161 37.7856 37.5505 37.5512C37.785 37.3168 37.9166 36.9988 37.9166 36.6673C37.9166 36.3358 37.785 36.0179 37.5505 35.7834C37.3161 35.549 36.9982 35.4173 36.6666 35.4173H36.25V24.1673C36.25 23.1728 35.8549 22.2189 35.1516 21.5157C34.4484 20.8124 33.4945 20.4173 32.5 20.4173H27.5C27.06 20.4195 26.6433 20.4907 26.25 20.6307V8.25232C26.25 7.14398 26.25 6.18898 26.1466 5.42398C26.0366 4.60565 25.7883 3.81898 25.1516 3.18232C24.515 2.54565 23.73 2.29732 22.91 2.18732C22.145 2.08398 21.19 2.08398 20.0816 2.08398M33.7483 35.4173V24.1673C33.7483 23.8358 33.6166 23.5179 33.3822 23.2834C33.1478 23.049 32.8298 22.9173 32.4983 22.9173H27.4983C27.1668 22.9173 26.8489 23.049 26.6144 23.2834C26.38 23.5179 26.2483 23.8358 26.2483 24.1673V35.4173H33.7483ZM23.7483 35.4173V8.33398C23.7483 7.12065 23.745 6.33398 23.6683 5.75732C23.595 5.21565 23.4766 5.04565 23.3816 4.95065C23.2866 4.85565 23.1166 4.73732 22.575 4.66398C21.9966 4.58732 21.2116 4.58398 19.9983 4.58398C18.785 4.58398 17.9983 4.58732 17.4216 4.66398C16.88 4.73732 16.71 4.85565 16.615 4.95065C16.52 5.04565 16.4016 5.21565 16.3283 5.75732C16.2516 6.33565 16.2483 7.12065 16.2483 8.33398V35.4173H23.7483ZM13.7483 35.4173V15.834C13.7483 15.5025 13.6166 15.1845 13.3822 14.9501C13.1478 14.7157 12.8298 14.584 12.4983 14.584H7.49831C7.16679 14.584 6.84885 14.7157 6.61443 14.9501C6.38001 15.1845 6.24831 15.5025 6.24831 15.834V35.4173H13.7483Z" fill="white"/>
</svg>