<svg xmlns="http://www.w3.org/2000/svg" width="40" height="40" viewBox="0 0 40 40" fill="none">
  <path d="M18.75 27.5H25C25.663 27.5 26.2989 27.2366 26.7678 26.7678C27.2366 26.2989 27.5 25.663 27.5 25V23.75H23.75C23.4185 23.75 23.1005 23.6183 22.8661 23.3839C22.6317 23.1495 22.5 22.8315 22.5 22.5C22.5 22.1685 22.6317 21.8505 22.8661 21.6161C23.1005 21.3817 23.4185 21.25 23.75 21.25H27.5V17.5H23.75C23.4185 17.5 23.1005 17.3683 22.8661 17.1339C22.6317 16.8995 22.5 16.5815 22.5 16.25C22.5 15.9185 22.6317 15.6005 22.8661 15.3661C23.1005 15.1317 23.4185 15 23.75 15H27.5V11.25H23.75C23.4185 11.25 23.1005 11.1183 22.8661 10.8839C22.6317 10.6495 22.5 10.3315 22.5 10C22.5 9.66848 22.6317 9.35054 22.8661 9.11612C23.1005 8.8817 23.4185 8.75 23.75 8.75H27.5V7.5C27.5 6.83696 27.2366 6.20107 26.7678 5.73223C26.2989 5.26339 25.663 5 25 5H15C14.337 5 13.7011 5.26339 13.2322 5.73223C12.7634 6.20107 12.5 6.83696 12.5 7.5V8.75H16.25C16.5815 8.75 16.8995 8.8817 17.1339 9.11612C17.3683 9.35054 17.5 9.66848 17.5 10C17.5 10.3315 17.3683 10.6495 17.1339 10.8839C16.8995 11.1183 16.5815 11.25 16.25 11.25H12.5V15H16.25C16.5815 15 16.8995 15.1317 17.1339 15.3661C17.3683 15.6005 17.5 15.9185 17.5 16.25C17.5 16.5815 17.3683 16.8995 17.1339 17.1339C16.8995 17.3683 16.5815 17.5 16.25 17.5H12.5V21.25H16.25C16.5815 21.25 16.8995 21.3817 17.1339 21.6161C17.3683 21.8505 17.5 22.1685 17.5 22.5C17.5 22.8315 17.3683 23.1495 17.1339 23.3839C16.8995 23.6183 16.5815 23.75 16.25 23.75H12.5V25C12.5 25.663 12.7634 26.2989 13.2322 26.7678C13.7011 27.2366 14.337 27.5 15 27.5H18.75ZM21.25 30V35H28.75C29.0815 35 29.3995 35.1317 29.6339 35.3661C29.8683 35.6005 30 35.9185 30 36.25C30 36.5815 29.8683 36.8995 29.6339 37.1339C29.3995 37.3683 29.0815 37.5 28.75 37.5H11.25C10.9185 37.5 10.6005 37.3683 10.3661 37.1339C10.1317 36.8995 10 36.5815 10 36.25C10 35.9185 10.1317 35.6005 10.3661 35.3661C10.6005 35.1317 10.9185 35 11.25 35H18.75V30H15C13.6739 30 12.4021 29.4732 11.4645 28.5355C10.5268 27.5979 10 26.3261 10 25V7.5C10 6.17392 10.5268 4.90215 11.4645 3.96447C12.4021 3.02678 13.6739 2.5 15 2.5H25C26.3261 2.5 27.5979 3.02678 28.5355 3.96447C29.4732 4.90215 30 6.17392 30 7.5V25C30 26.3261 29.4732 27.5979 28.5355 28.5355C27.5979 29.4732 26.3261 30 25 30H21.25Z" fill="white"/>
</svg>