<svg width="40" height="40" viewBox="0 0 40 40" fill="none" xmlns="http://www.w3.org/2000/svg">
<rect x="0.5" y="0.5" width="39" height="39" rx="4.5" stroke="#0D0C12" stroke-opacity="0.1"/>
<path d="M20 11.875C17.8451 11.875 15.7785 12.731 14.2548 14.2548C12.731 15.7785 11.875 17.8451 11.875 20C11.875 21.2983 12.18 22.5275 12.7233 23.6183C12.81 23.7933 12.8183 24.0542 12.7192 24.46C12.6667 24.665 12.6055 24.8677 12.5358 25.0675L12.5108 25.1392C12.4492 25.3225 12.3825 25.5225 12.3325 25.7083C12.0142 26.8975 13.1025 27.9858 14.2908 27.6675C14.4775 27.6175 14.6767 27.5508 14.8608 27.4892L14.9325 27.4642C15.1323 27.3945 15.335 27.3333 15.54 27.2808C15.9458 27.1808 16.2067 27.1892 16.3817 27.2767C17.5055 27.8366 18.7444 28.1271 20 28.125C24.4875 28.125 28.125 24.4875 28.125 20C28.125 15.5125 24.4875 11.875 20 11.875Z" fill="#0D0C12"/>
</svg>
