<svg width="40" height="40" viewBox="0 0 40 40" fill="none" xmlns="http://www.w3.org/2000/svg">
<rect x="0.5" y="0.5" width="39" height="39" rx="4.5" stroke="#0D0C12" stroke-opacity="0.1"/>
<path d="M25.2735 28.7496C24.511 28.7496 23.4399 28.4739 21.836 27.5778C19.8856 26.484 18.377 25.4742 16.4372 23.5395C14.5669 21.6703 13.6567 20.4602 12.3829 18.1422C10.9438 15.525 11.1891 14.1532 11.4634 13.5668C11.7899 12.866 12.2719 12.4469 12.895 12.0309C13.2489 11.799 13.6234 11.6003 14.0137 11.4371C14.0528 11.4203 14.0891 11.4043 14.1216 11.3899C14.3149 11.3028 14.6079 11.1711 14.979 11.3117C15.2266 11.4047 15.4477 11.595 15.7938 11.9367C16.5036 12.6367 17.4735 14.1957 17.8313 14.9614C18.0716 15.4774 18.2305 15.818 18.2309 16.2C18.2309 16.6473 18.0059 16.9922 17.7329 17.3645C17.6817 17.4344 17.6309 17.5012 17.5817 17.566C17.2844 17.9567 17.2192 18.0696 17.2622 18.2711C17.3493 18.6762 17.9989 19.8821 19.0665 20.9473C20.1341 22.0125 21.3051 22.6211 21.7118 22.7078C21.9219 22.7528 22.0372 22.6848 22.4403 22.377C22.4981 22.3328 22.5575 22.2871 22.6196 22.2414C23.036 21.9317 23.3649 21.7125 23.8016 21.7125H23.804C24.1841 21.7125 24.5094 21.8774 25.0485 22.1492C25.7516 22.5039 27.3575 23.4614 28.0618 24.1719C28.4044 24.5172 28.5954 24.7375 28.6887 24.9848C28.8294 25.3571 28.6969 25.6489 28.6106 25.8442C28.5962 25.8766 28.5801 25.9121 28.5634 25.9516C28.3989 26.3413 28.199 26.715 27.9661 27.068C27.5509 27.6891 27.1301 28.17 26.4278 28.4969C26.0672 28.6675 25.6725 28.7539 25.2735 28.7496Z" fill="#0D0C12"/>
</svg>
