<svg width="30" height="30" viewBox="0 0 30 30" fill="none" xmlns="http://www.w3.org/2000/svg">
<path d="M13.5469 13.183C13.5469 12.6805 13.1569 12.273 12.6756 12.273H10.7256C11.1306 10.198 12.8894 8.63672 15.0006 8.63672C17.1094 8.63672 18.8694 10.1992 19.2731 12.2742H16.1631C15.6819 12.2742 15.2919 12.6805 15.2919 13.1817C15.2919 13.6842 15.6819 14.0917 16.1631 14.0917H19.3619V15.9092H16.1631C15.6819 15.9092 15.2919 16.3167 15.2919 16.8192C15.2919 17.3217 15.6819 17.728 16.1631 17.728H19.2744C18.9269 19.5092 17.5819 20.9117 15.8731 21.273V24.0917C15.8731 24.593 15.4819 25.0005 15.0006 25.0005C14.5194 25.0005 14.1281 24.593 14.1281 24.0917V21.273C12.4206 20.9117 11.0744 19.5092 10.7281 17.728H12.6756C13.1569 17.728 13.5469 17.3205 13.5469 16.8192C13.5469 16.3167 13.1569 15.9092 12.6756 15.9092H10.6406V14.0917H12.6756C13.1569 14.0917 13.5469 13.6842 13.5469 13.183Z" fill="white"/>
<path opacity="0.5" d="M15 5C10.8375 5 7.4325 8.37625 7.1675 12.645C6.71628 12.4001 6.21091 12.272 5.6975 12.2725C3.93125 12.2725 2.5 13.765 2.5 15.6063V18.0313C2.5 19.8713 3.93125 21.3638 5.6975 21.3638C5.7575 21.3638 5.81708 21.3621 5.87625 21.3588V21.3638C7.54375 21.3638 8.895 19.955 8.895 18.2163V13.1813C8.895 9.6675 11.6288 6.81875 15 6.81875C18.3713 6.81875 21.105 9.6675 21.105 13.1813V18.2163C21.105 19.9538 22.455 21.3638 24.1238 21.3638V21.3588C24.1821 21.3621 24.2417 21.3638 24.3025 21.3638C26.0688 21.3638 27.5 19.8713 27.5 18.03V15.605C27.5 13.765 26.0688 12.2725 24.3025 12.2725C23.7725 12.2725 23.2725 12.4075 22.8325 12.645C22.5675 8.37625 19.1613 5 15 5Z" fill="white"/>
</svg>
