<svg xmlns="http://www.w3.org/2000/svg" width="31" height="30" viewBox="0 0 31 30" fill="none">
  <path d="M18.1641 2.5V7.5C18.1641 8.16304 18.4275 8.79893 18.8963 9.26777C19.3651 9.73661 20.001 10 20.6641 10H25.6641" stroke="#801323" stroke-width="2" stroke-linecap="round" stroke-linejoin="round"/>
  <path d="M19.4141 22.5C19.4141 21.5054 19.019 20.5516 18.3157 19.8483C17.6125 19.1451 16.6586 18.75 15.6641 18.75C14.6695 18.75 13.7157 19.1451 13.0124 19.8483C12.3092 20.5516 11.9141 21.5054 11.9141 22.5" stroke="#801323" stroke-width="2" stroke-linecap="round" stroke-linejoin="round"/>
  <path d="M19.4141 2.5H8.16406C7.50102 2.5 6.86514 2.76339 6.3963 3.23223C5.92745 3.70107 5.66406 4.33696 5.66406 5V25C5.66406 25.663 5.92745 26.2989 6.3963 26.7678C6.86514 27.2366 7.50102 27.5 8.16406 27.5H23.1641C23.8271 27.5 24.463 27.2366 24.9318 26.7678C25.4007 26.2989 25.6641 25.663 25.6641 25V8.75L19.4141 2.5Z" stroke="#801323" stroke-width="2" stroke-linecap="round" stroke-linejoin="round"/>
  <path d="M15.6641 18.75C17.0448 18.75 18.1641 17.6307 18.1641 16.25C18.1641 14.8693 17.0448 13.75 15.6641 13.75C14.2834 13.75 13.1641 14.8693 13.1641 16.25C13.1641 17.6307 14.2834 18.75 15.6641 18.75Z" stroke="#801323" stroke-width="2" stroke-linecap="round" stroke-linejoin="round"/>
</svg>