<svg xmlns="http://www.w3.org/2000/svg" width="30" height="30" viewBox="0 0 30 30" fill="none">
  <path d="M3.73961 20.4271C3.92341 20.8908 3.96433 21.3988 3.85711 21.8859L2.52586 25.9984C2.48297 26.2069 2.49406 26.423 2.55808 26.6261C2.62211 26.8291 2.73694 27.0125 2.8917 27.1587C3.04645 27.305 3.236 27.4092 3.44236 27.4617C3.64873 27.5141 3.86507 27.513 4.07086 27.4584L8.33711 26.2109C8.79676 26.1197 9.27277 26.1595 9.71086 26.3259C12.3801 27.5724 15.4038 27.8361 18.2486 27.0705C21.0933 26.3049 23.5762 24.5592 25.2592 22.1413C26.9423 19.7235 27.7173 16.7889 27.4475 13.8553C27.1777 10.9217 25.8805 8.1777 23.7847 6.10736C21.6889 4.03702 18.9292 2.77342 15.9926 2.53949C13.0559 2.30556 10.131 3.11634 7.73392 4.82879C5.3368 6.54124 3.62153 9.04529 2.89073 11.8992C2.15993 14.753 2.46058 17.7733 3.73961 20.4271Z" stroke="#801323" stroke-width="2" stroke-linecap="round" stroke-linejoin="round"/>
  <path d="M9.78547 16.338C9.11538 15.6371 8.74287 14.7038 8.74611 13.7341C8.74936 12.7644 9.12811 11.8337 9.80287 11.1373C10.4776 10.4408 11.3959 10.0328 12.365 9.99896C13.3342 9.96507 14.2787 10.3079 15.0005 10.9555C15.5389 10.4722 16.2057 10.1549 16.9204 10.042C17.6352 9.92913 18.3673 10.0254 19.0285 10.3193C19.6897 10.6132 20.2518 11.0921 20.6469 11.6982C21.0421 12.3044 21.2534 13.0119 21.2555 13.7355C21.2585 14.7052 20.8858 15.6385 20.2155 16.3393L15.9067 20.8643C15.7899 20.9871 15.6492 21.0849 15.4934 21.1517C15.3375 21.2184 15.1697 21.2528 15.0002 21.2527C14.8307 21.2526 14.6629 21.218 14.5072 21.151C14.3514 21.084 14.2109 20.986 14.0942 20.863L9.78547 16.338Z" stroke="#801323" stroke-width="2" stroke-linecap="round" stroke-linejoin="round"/>
</svg>