<svg xmlns="http://www.w3.org/2000/svg" width="30" height="30" viewBox="0 0 30 30" fill="none">
  <path d="M15.0437 21.265C15.0437 20.2704 14.6487 19.3166 13.9454 18.6133C13.2421 17.9101 12.2883 17.515 11.2937 17.515L10.905 17.5125C10.7275 17.5115 10.5542 17.4579 10.407 17.3587C10.2598 17.2594 10.1453 17.1188 10.0778 16.9546C10.0103 16.7904 9.99294 16.6099 10.0278 16.4358C10.0627 16.2617 10.1482 16.1018 10.2737 15.9763L11.7675 14.4825C12.2362 14.0136 12.872 13.7501 13.535 13.75H15C15.663 13.75 16.2989 13.4866 16.7678 13.0178C17.2366 12.5489 17.5 11.913 17.5 11.25C17.5 10.587 17.2366 9.95107 16.7678 9.48223C16.2989 9.01339 15.663 8.75 15 8.75H11.5538C11.0611 8.74994 10.5733 8.84695 10.1182 9.03547C9.66306 9.224 9.24954 9.50036 8.90125 9.84875L5.5175 13.2325C4.38596 14.3645 3.75022 15.8995 3.75 17.5C3.75 20.1522 4.80357 22.6957 6.67893 24.5711C8.5543 26.4464 11.0978 27.5 13.75 27.5H16.25C18.9022 27.5 21.4457 26.4464 23.3211 24.5711C25.1964 22.6957 26.25 20.1522 26.25 17.5V8.75C26.25 8.08696 25.9866 7.45107 25.5178 6.98223C25.0489 6.51339 24.413 6.25 23.75 6.25C23.087 6.25 22.4511 6.51339 21.9822 6.98223C21.5134 7.45107 21.25 8.08696 21.25 8.75V11.25C21.25 11.913 21.5134 12.5489 21.9822 13.0178C22.4511 13.4866 23.087 13.75 23.75 13.75C24.413 13.75 25.0489 13.4866 25.5178 13.0178C25.9866 12.5489 26.25 11.913 26.25 11.25" stroke="#801323" stroke-width="2" stroke-linecap="round" stroke-linejoin="round"/>
  <path d="M17.36 12.0775C17.7364 12.3293 18.174 12.4741 18.6262 12.4965C19.0785 12.5189 19.5283 12.4181 19.9277 12.2048C20.3271 11.9915 20.6611 11.6737 20.894 11.2854C21.1269 10.8971 21.2499 10.4528 21.25 10V6.25C21.25 5.58696 20.9866 4.95107 20.5178 4.48223C20.0489 4.01339 19.413 3.75 18.75 3.75C18.087 3.75 17.4511 4.01339 16.9822 4.48223C16.5134 4.95107 16.25 5.58696 16.25 6.25" stroke="#801323" stroke-width="2" stroke-linecap="round" stroke-linejoin="round"/>
  <path d="M11.25 6.25C11.25 5.58696 10.9866 4.95107 10.5178 4.48223C10.0489 4.01339 9.41304 3.75 8.75 3.75C8.08696 3.75 7.45107 4.01339 6.98223 4.48223C6.51339 4.95107 6.25 5.58696 6.25 6.25V12.5" stroke="#801323" stroke-width="2" stroke-linecap="round" stroke-linejoin="round"/>
  <path d="M11.25 8.75V5C11.25 4.33696 11.5134 3.70107 11.9822 3.23223C12.4511 2.76339 13.087 2.5 13.75 2.5C14.413 2.5 15.0489 2.76339 15.5178 3.23223C15.9866 3.70107 16.25 4.33696 16.25 5V9.085" stroke="#801323" stroke-width="2" stroke-linecap="round" stroke-linejoin="round"/>
</svg>