<svg xmlns="http://www.w3.org/2000/svg" width="30" height="30" viewBox="0 0 30 30" fill="none">
  <path d="M17.5 11.92V8.75C17.5 7.42392 18.0268 6.15215 18.9645 5.21447C19.9021 4.27678 21.1739 3.75 22.5 3.75H24.375C24.5408 3.75 24.6997 3.81585 24.8169 3.93306C24.9342 4.05027 25 4.20924 25 4.375V6.25C25 7.57608 24.4732 8.84785 23.5355 9.78553C22.5979 10.7232 21.3261 11.25 20 11.25C18.6739 11.25 17.4021 11.7768 16.4645 12.7145C15.5268 13.6521 15 14.9239 15 16.25C15 18.75 16.25 20 16.25 22.5C16.25 23.8523 15.8114 25.1681 15 26.25" stroke="#801323" stroke-width="2" stroke-linecap="round" stroke-linejoin="round"/>
  <path d="M5 11.25C5.92856 10.5536 7.03271 10.1295 8.18871 10.0253C9.34472 9.92102 10.5069 10.1408 11.5451 10.6598C12.5832 11.1789 13.4564 11.9768 14.0666 12.9642C14.6768 13.9515 15 15.0893 15 16.25C14.0714 16.9464 12.9673 17.3705 11.8113 17.4747C10.6553 17.579 9.49308 17.3593 8.45492 16.8402C7.41675 16.3211 6.54365 15.5232 5.93343 14.5358C5.32322 13.5485 5 12.4107 5 11.25Z" stroke="#801323" stroke-width="2" stroke-linecap="round" stroke-linejoin="round"/>
  <path d="M6.25 26.25H23.75" stroke="#801323" stroke-width="2" stroke-linecap="round" stroke-linejoin="round"/>
</svg>