<svg xmlns="http://www.w3.org/2000/svg" width="31" height="30" viewBox="0 0 31 30" fill="none">
  <path d="M20.334 13.75L22.834 16.25L27.834 11.25" stroke="#801323" stroke-width="2" stroke-linecap="round" stroke-linejoin="round"/>
  <path d="M20.334 26.25V23.75C20.334 22.4239 19.8072 21.1521 18.8695 20.2145C17.9318 19.2768 16.6601 18.75 15.334 18.75H7.83398C6.5079 18.75 5.23613 19.2768 4.29845 20.2145C3.36077 21.1521 2.83398 22.4239 2.83398 23.75V26.25" stroke="#801323" stroke-width="2" stroke-linecap="round" stroke-linejoin="round"/>
  <path d="M11.584 13.75C14.3454 13.75 16.584 11.5114 16.584 8.75C16.584 5.98858 14.3454 3.75 11.584 3.75C8.82256 3.75 6.58398 5.98858 6.58398 8.75C6.58398 11.5114 8.82256 13.75 11.584 13.75Z" stroke="#801323" stroke-width="2" stroke-linecap="round" stroke-linejoin="round"/>
</svg>