<svg width="40" height="40" viewBox="0 0 40 40" fill="none" xmlns="http://www.w3.org/2000/svg">
<rect x="0.5" y="0.5" width="39" height="39" rx="4.5" stroke="#0D0C12" stroke-opacity="0.1"/>
<path d="M28.3334 16.2793V24.1668C28.3335 24.8045 28.0898 25.4181 27.6523 25.882C27.2149 26.346 26.6167 26.6252 25.9801 26.6626L25.8334 26.6668H14.1667C13.5291 26.6668 12.9155 26.4232 12.4515 25.9857C11.9876 25.5483 11.7083 24.95 11.6709 24.3135L11.6667 24.1668V16.2793L19.5376 21.5268L19.6342 21.5818C19.7482 21.6375 19.8733 21.6664 20.0001 21.6664C20.1269 21.6664 20.252 21.6375 20.3659 21.5818L20.4626 21.5268L28.3334 16.2793Z" fill="#0D0C12"/>
<path d="M25.8334 13.333C26.7334 13.333 27.5226 13.808 27.9626 14.5222L20.0001 19.8305L12.0376 14.5222C12.2466 14.1829 12.5337 13.8984 12.8749 13.6926C13.2161 13.4867 13.6016 13.3655 13.9993 13.3388L14.1668 13.333H25.8334Z" fill="#0D0C12"/>
</svg>
