<svg xmlns="http://www.w3.org/2000/svg" width="40" height="40" viewBox="0 0 40 40" fill="none">
  <path d="M38.0625 23.2496C37.964 23.3234 37.8519 23.3772 37.7327 23.4077C37.6134 23.4383 37.4893 23.4451 37.3674 23.4277C37.2455 23.4102 37.1283 23.369 37.0224 23.3063C36.9164 23.2435 36.8239 23.1606 36.75 23.0621C35.9676 22.0104 34.9493 21.1571 33.7769 20.5709C32.6045 19.9846 31.3108 19.6819 30 19.6871C29.7514 19.6871 29.5129 19.5883 29.3371 19.4125C29.1613 19.2367 29.0625 18.9982 29.0625 18.7496C29.0625 18.5009 29.1613 18.2625 29.3371 18.0867C29.5129 17.9108 29.7514 17.8121 30 17.8121C30.7598 17.8119 31.5043 17.5987 32.149 17.1966C32.7937 16.7945 33.3127 16.2197 33.647 15.5375C33.9814 14.8552 34.1178 14.0929 34.0406 13.337C33.9635 12.5812 33.6759 11.8621 33.2105 11.2615C32.7452 10.6609 32.1208 10.2028 31.4081 9.93925C30.6955 9.67573 29.9233 9.61733 29.1791 9.77069C28.435 9.92405 27.7487 10.283 27.1984 10.8068C26.648 11.3306 26.2556 11.9983 26.0656 12.7339C26.0035 12.9747 25.8482 13.1809 25.634 13.3072C25.4198 13.4335 25.1642 13.4695 24.9234 13.4074C24.6827 13.3452 24.4765 13.19 24.3502 12.9758C24.2239 12.7616 24.1878 12.506 24.25 12.2652C24.4857 11.3487 24.937 10.5018 25.5663 9.79505C26.1957 9.08833 26.9848 8.54228 27.868 8.20241C28.7512 7.86253 29.7028 7.73868 30.6436 7.84118C31.5843 7.94368 32.487 8.26956 33.2762 8.79166C34.0655 9.31375 34.7185 10.0169 35.1809 10.8426C35.6433 11.6683 35.9017 12.5925 35.9344 13.5383C35.9672 14.484 35.7734 15.4239 35.3692 16.2796C34.965 17.1353 34.3622 17.8819 33.6109 18.4574C35.4596 19.1473 37.0702 20.3554 38.25 21.9371C38.3239 22.0356 38.3776 22.1476 38.4082 22.2669C38.4387 22.3862 38.4455 22.5103 38.4281 22.6322C38.4107 22.754 38.3694 22.8713 38.3067 22.9772C38.244 23.0832 38.161 23.1757 38.0625 23.2496ZM29.5609 33.2808C29.6226 33.3874 29.6627 33.5051 29.6789 33.6272C29.6951 33.7493 29.6871 33.8734 29.6553 33.9923C29.6235 34.1113 29.5686 34.2229 29.4937 34.3206C29.4188 34.4184 29.3254 34.5004 29.2188 34.5621C29.0766 34.6454 28.9148 34.6891 28.75 34.6886C28.5853 34.6887 28.4235 34.6455 28.2809 34.5632C28.1383 34.4809 28.0198 34.3625 27.9375 34.2199C27.1226 32.8392 25.9617 31.6949 24.5694 30.9C23.1772 30.105 21.6017 29.6869 19.9984 29.6869C18.3952 29.6869 16.8197 30.105 15.4274 30.9C14.0352 31.6949 12.8743 32.8392 12.0594 34.2199C12.0008 34.3319 11.9201 34.4309 11.8222 34.511C11.7244 34.5911 11.6113 34.6505 11.4899 34.6857C11.3684 34.7209 11.2411 34.7312 11.1156 34.716C10.9901 34.7007 10.869 34.6603 10.7595 34.597C10.65 34.5337 10.5545 34.4489 10.4786 34.3478C10.4028 34.2466 10.3482 34.1312 10.3181 34.0084C10.288 33.8856 10.2831 33.7579 10.3036 33.6332C10.3241 33.5084 10.3697 33.3891 10.4375 33.2824C11.7144 31.0884 13.7138 29.4061 16.0938 28.523C14.7937 27.6789 13.8013 26.4371 13.2647 24.9829C12.7281 23.5287 12.676 21.9399 13.1162 20.4537C13.5564 18.9674 14.4652 17.6633 15.7072 16.7358C16.9492 15.8083 18.4577 15.3072 20.0078 15.3072C21.5579 15.3072 23.0664 15.8083 24.3084 16.7358C25.5504 17.6633 26.4592 18.9674 26.8994 20.4537C27.3396 21.9399 27.2875 23.5287 26.7509 24.9829C26.2143 26.4371 25.2219 27.6789 23.9219 28.523C26.2952 29.4091 28.288 31.0905 29.5609 33.2808ZM20 27.8121C21.0507 27.8121 22.0778 27.5005 22.9515 26.9168C23.8251 26.333 24.506 25.5033 24.9081 24.5326C25.3102 23.5618 25.4154 22.4937 25.2104 21.4632C25.0054 20.4326 24.4995 19.486 23.7565 18.7431C23.0135 18.0001 22.0669 17.4941 21.0364 17.2892C20.0059 17.0842 18.9377 17.1894 17.967 17.5915C16.9963 17.9936 16.1666 18.6745 15.5828 19.5481C14.9991 20.4217 14.6875 21.4489 14.6875 22.4996C14.6875 23.9085 15.2472 25.2598 16.2435 26.2561C17.2398 27.2524 18.591 27.8121 20 27.8121ZM10.9375 18.7496C10.9375 18.5009 10.8387 18.2625 10.6629 18.0867C10.4871 17.9108 10.2486 17.8121 10 17.8121C9.2403 17.8118 8.49589 17.5986 7.85129 17.1965C7.2067 16.7945 6.68776 16.2197 6.3534 15.5376C6.01904 14.8554 5.88266 14.0931 5.95975 13.3374C6.03683 12.5816 6.32429 11.8626 6.78949 11.2619C7.25468 10.6613 7.87897 10.2032 8.59146 9.93955C9.30395 9.6759 10.0761 9.61733 10.8202 9.77047C11.5643 9.92361 12.2506 10.2823 12.801 10.8059C13.3515 11.3295 13.7442 11.9969 13.9344 12.7324C13.9652 12.8516 14.0191 12.9636 14.0932 13.062C14.1672 13.1603 14.2599 13.2431 14.366 13.3057C14.4721 13.3682 14.5894 13.4092 14.7113 13.4264C14.8332 13.4436 14.9573 13.4366 15.0766 13.4058C15.1958 13.375 15.3078 13.3211 15.4061 13.247C15.5045 13.173 15.5873 13.0803 15.6498 12.9742C15.7124 12.8681 15.7534 12.7508 15.7706 12.6289C15.7878 12.507 15.7808 12.3829 15.75 12.2636C15.5143 11.3471 15.063 10.5002 14.4337 9.79349C13.8043 9.08677 13.0152 8.54072 12.132 8.20084C11.2488 7.86097 10.2972 7.73712 9.35643 7.83962C8.41567 7.94212 7.51304 8.268 6.72377 8.7901C5.9345 9.31219 5.28145 10.0154 4.81907 10.841C4.35668 11.6667 4.09835 12.5909 4.0656 13.5367C4.03285 14.4825 4.22663 15.4224 4.6308 16.278C5.03496 17.1337 5.6378 17.8804 6.38906 18.4558C4.54023 19.1462 2.92958 20.3549 1.75 21.9371C1.67613 22.0356 1.62239 22.1476 1.59183 22.2669C1.56128 22.3862 1.55451 22.5103 1.57192 22.6322C1.58933 22.754 1.63058 22.8713 1.69331 22.9772C1.75603 23.0832 1.83901 23.1757 1.9375 23.2496C2.03599 23.3234 2.14807 23.3772 2.26733 23.4077C2.38659 23.4383 2.51071 23.4451 2.63258 23.4277C2.75446 23.4102 2.87171 23.369 2.97765 23.3063C3.08359 23.2435 3.17613 23.1606 3.25 23.0621C4.03235 22.0104 5.05073 21.1571 6.22314 20.5709C7.39555 19.9846 8.68922 19.6819 10 19.6871C10.2486 19.6871 10.4871 19.5883 10.6629 19.4125C10.8387 19.2367 10.9375 18.9982 10.9375 18.7496Z" fill="white"/>
</svg>