<svg xmlns="http://www.w3.org/2000/svg" width="40" height="40" viewBox="0 0 40 40" fill="none">
  <path d="M19.5033 33.2371C19.7211 33.2371 19.9444 33.1882 20.1733 33.0904C20.4022 32.9926 20.5872 32.8732 20.7283 32.7321L33.7216 19.7371C34.1405 19.3182 34.4639 18.8904 34.6916 18.4537C34.9183 18.0149 35.0316 17.5338 35.0316 17.0104C35.0316 16.4804 34.9183 15.966 34.6916 15.4671C34.4639 14.9671 34.1405 14.5115 33.7216 14.1004L27.4716 7.85042C27.0594 7.43153 26.6355 7.12431 26.2 6.92875C25.7655 6.73319 25.2833 6.63542 24.7533 6.63542C24.23 6.63542 23.7439 6.73319 23.295 6.92875C22.8461 7.12431 22.4233 7.43097 22.0266 7.84875L20.5733 9.30208L23.6566 12.3937C23.9878 12.7193 24.235 13.0893 24.3983 13.5037C24.5605 13.9182 24.6416 14.3387 24.6416 14.7654C24.6416 15.6332 24.3578 16.351 23.79 16.9187C23.2222 17.4865 22.505 17.7699 21.6383 17.7688C21.2105 17.7688 20.7933 17.7037 20.3866 17.5737C19.98 17.4437 19.6139 17.216 19.2883 16.8904L16.8366 14.4504C16.6444 14.2582 16.3989 14.1621 16.1 14.1621C15.8 14.1621 15.5539 14.2582 15.3616 14.4504L8.90331 20.9087C8.73553 21.0776 8.60942 21.2693 8.52498 21.4837C8.44053 21.6982 8.39831 21.9149 8.39831 22.1337C8.39831 22.5271 8.52442 22.851 8.77664 23.1054C9.02775 23.361 9.34998 23.4888 9.74331 23.4888C9.96109 23.4888 10.1844 23.4399 10.4133 23.3421C10.6422 23.2432 10.8272 23.1232 10.9683 22.9821L15.66 18.2904C15.8155 18.1349 16.0055 18.0499 16.23 18.0354C16.4544 18.021 16.6578 18.106 16.84 18.2904C17.0178 18.4682 17.1066 18.6649 17.1066 18.8804C17.1066 19.096 17.0178 19.2926 16.84 19.4704L12.1566 24.1621C11.9878 24.331 11.8611 24.5226 11.7766 24.7371C11.6933 24.9526 11.6516 25.1693 11.6516 25.3871C11.6516 25.7593 11.7828 26.0765 12.045 26.3388C12.3072 26.601 12.6244 26.7326 12.9966 26.7338C13.2144 26.7338 13.4378 26.6843 13.6666 26.5854C13.8955 26.4865 14.0805 26.3671 14.2216 26.2271L19.2983 21.1604C19.4539 21.0037 19.6433 20.9182 19.8666 20.9037C20.09 20.8893 20.2933 20.9743 20.4766 21.1587C20.6544 21.3365 20.7433 21.5332 20.7433 21.7487C20.7433 21.9643 20.6544 22.161 20.4766 22.3387L15.41 27.4154C15.2633 27.5565 15.1422 27.7415 15.0466 27.9704C14.9511 28.1993 14.9033 28.4226 14.9033 28.6404C14.9033 29.0115 15.035 29.3282 15.2983 29.5904C15.5616 29.8549 15.8789 29.9871 16.25 29.9871C16.4678 29.9871 16.6844 29.9449 16.9 29.8604C17.1155 29.776 17.3066 29.6493 17.4733 29.4804L22.5516 24.4137C22.7072 24.2571 22.8966 24.1715 23.12 24.1571C23.3433 24.1438 23.5472 24.2288 23.7316 24.4121C23.9083 24.5899 23.9966 24.7865 23.9966 25.0021C23.9966 25.2176 23.9078 25.4143 23.73 25.5921L18.655 30.6671C18.4872 30.836 18.3611 31.0387 18.2766 31.2754C18.1922 31.5121 18.15 31.7282 18.15 31.9237C18.15 32.3171 18.2883 32.6343 18.565 32.8754C18.8416 33.1165 19.155 33.2371 19.505 33.2371M19.495 34.9037C18.6383 34.9037 17.905 34.5904 17.295 33.9637C16.685 33.3371 16.4172 32.5626 16.4916 31.6404C15.5472 31.6515 14.7611 31.3699 14.1333 30.7954C13.5055 30.221 13.2072 29.4188 13.2383 28.3888C12.2094 28.3999 11.3983 28.1054 10.805 27.5054C10.2116 26.9054 9.94164 26.1154 9.99498 25.1354C9.06831 25.1465 8.29275 24.8854 7.66831 24.3521C7.04498 23.821 6.73331 23.081 6.73331 22.1321C6.73331 21.7043 6.81609 21.2765 6.98164 20.8487C7.1472 20.4199 7.39164 20.0432 7.71498 19.7188L14.2066 13.2271C14.7178 12.7171 15.3478 12.4621 16.0966 12.4621C16.8455 12.4621 17.4755 12.7176 17.9866 13.2287L20.405 15.6471C20.5461 15.7949 20.7205 15.9165 20.9283 16.0121C21.1361 16.1076 21.37 16.1549 21.63 16.1538C21.9866 16.1538 22.3016 16.0293 22.575 15.7804C22.8483 15.5315 22.9855 15.2071 22.9866 14.8071C22.9866 14.5471 22.9389 14.3137 22.8433 14.1071C22.7478 13.8993 22.6266 13.7249 22.48 13.5837L16.7466 7.85042C16.3333 7.43153 15.9039 7.12431 15.4583 6.92875C15.0128 6.73319 14.525 6.63542 13.995 6.63542C13.4716 6.63542 12.9961 6.73319 12.5683 6.92875C12.1416 7.12431 11.7189 7.43153 11.3 7.85042L6.22498 12.9338C5.64275 13.5149 5.26831 14.2243 5.10164 15.0621C4.93498 15.8999 5.01109 16.6999 5.32998 17.4621C5.3922 17.6776 5.36442 17.886 5.24664 18.0871C5.12887 18.2882 4.9622 18.416 4.74664 18.4704C4.53109 18.5249 4.3172 18.496 4.10498 18.3837C3.89275 18.2715 3.75942 18.1065 3.70498 17.8887C3.34609 16.811 3.26775 15.7226 3.46998 14.6237C3.6722 13.5249 4.19442 12.5543 5.03664 11.7121L10.0766 6.67042C10.6578 6.09486 11.2728 5.66708 11.9216 5.38708C12.5705 5.10819 13.2722 4.96875 14.0266 4.96875C14.7811 4.96875 15.4766 5.10875 16.1133 5.38875C16.7511 5.66764 17.3578 6.09486 17.9333 6.67042L19.3833 8.12208L20.8366 6.67042C21.4178 6.09486 22.0272 5.66708 22.665 5.38708C23.3028 5.10819 23.9989 4.96875 24.7533 4.96875C25.5078 4.96875 26.2094 5.10875 26.8583 5.38875C27.5061 5.66764 28.1172 6.09486 28.6916 6.67042L34.9016 12.8788C35.4761 13.4532 35.9194 14.0982 36.2316 14.8137C36.5439 15.5293 36.6994 16.2643 36.6983 17.0188C36.6983 17.7743 36.5428 18.4704 36.2316 19.1071C35.9205 19.7437 35.4772 20.3504 34.9016 20.9271L21.9066 33.9104C21.5611 34.2571 21.1844 34.5093 20.7766 34.6671C20.37 34.8249 19.9439 34.9037 19.495 34.9037Z" fill="white"/>
</svg>