<svg width="20" height="20" viewBox="0 0 20 20" fill="none" xmlns="http://www.w3.org/2000/svg">
<path d="M10.0001 11.666C10.1649 11.666 10.326 11.6171 10.4631 11.5256C10.6001 11.434 10.7069 11.3039 10.77 11.1516C10.8331 10.9993 10.8496 10.8318 10.8174 10.6701C10.7852 10.5085 10.7059 10.36 10.5893 10.2434C10.4728 10.1269 10.3243 10.0475 10.1627 10.0154C10.001 9.98321 9.83345 9.99971 9.68118 10.0628C9.52891 10.1259 9.39876 10.2327 9.30719 10.3697C9.21562 10.5067 9.16675 10.6679 9.16675 10.8327C9.16675 11.0537 9.25455 11.2657 9.41083 11.4219C9.56711 11.5782 9.77907 11.666 10.0001 11.666ZM14.1667 11.666C14.3316 11.666 14.4927 11.6171 14.6297 11.5256C14.7668 11.434 14.8736 11.3039 14.9366 11.1516C14.9997 10.9993 15.0162 10.8318 14.9841 10.6701C14.9519 10.5085 14.8725 10.36 14.756 10.2434C14.6395 10.1269 14.491 10.0475 14.3293 10.0154C14.1677 9.98321 14.0001 9.99971 13.8478 10.0628C13.6956 10.1259 13.5654 10.2327 13.4739 10.3697C13.3823 10.5067 13.3334 10.6679 13.3334 10.8327C13.3334 11.0537 13.4212 11.2657 13.5775 11.4219C13.7338 11.5782 13.9457 11.666 14.1667 11.666ZM10.0001 14.9993C10.1649 14.9993 10.326 14.9505 10.4631 14.8589C10.6001 14.7673 10.7069 14.6372 10.77 14.4849C10.8331 14.3326 10.8496 14.1651 10.8174 14.0034C10.7852 13.8418 10.7059 13.6933 10.5893 13.5768C10.4728 13.4602 10.3243 13.3808 10.1627 13.3487C10.001 13.3165 9.83345 13.333 9.68118 13.3961C9.52891 13.4592 9.39876 13.566 9.30719 13.703C9.21562 13.8401 9.16675 14.0012 9.16675 14.166C9.16675 14.387 9.25455 14.599 9.41083 14.7553C9.56711 14.9116 9.77907 14.9993 10.0001 14.9993ZM14.1667 14.9993C14.3316 14.9993 14.4927 14.9505 14.6297 14.8589C14.7668 14.7673 14.8736 14.6372 14.9366 14.4849C14.9997 14.3326 15.0162 14.1651 14.9841 14.0034C14.9519 13.8418 14.8725 13.6933 14.756 13.5768C14.6395 13.4602 14.491 13.3808 14.3293 13.3487C14.1677 13.3165 14.0001 13.333 13.8478 13.3961C13.6956 13.4592 13.5654 13.566 13.4739 13.703C13.3823 13.8401 13.3334 14.0012 13.3334 14.166C13.3334 14.387 13.4212 14.599 13.5775 14.7553C13.7338 14.9116 13.9457 14.9993 14.1667 14.9993ZM5.83341 11.666C5.99823 11.666 6.15935 11.6171 6.29639 11.5256C6.43343 11.434 6.54024 11.3039 6.60331 11.1516C6.66639 10.9993 6.68289 10.8318 6.65074 10.6701C6.61858 10.5085 6.53921 10.36 6.42267 10.2434C6.30613 10.1269 6.15764 10.0475 5.99599 10.0154C5.83434 9.98321 5.66678 9.99971 5.51451 10.0628C5.36224 10.1259 5.23209 10.2327 5.14052 10.3697C5.04896 10.5067 5.00008 10.6679 5.00008 10.8327C5.00008 11.0537 5.08788 11.2657 5.24416 11.4219C5.40044 11.5782 5.6124 11.666 5.83341 11.666ZM15.8334 3.33268H15.0001V2.49935C15.0001 2.27834 14.9123 2.06637 14.756 1.91009C14.5997 1.75381 14.3878 1.66602 14.1667 1.66602C13.9457 1.66602 13.7338 1.75381 13.5775 1.91009C13.4212 2.06637 13.3334 2.27834 13.3334 2.49935V3.33268H6.66675V2.49935C6.66675 2.27834 6.57895 2.06637 6.42267 1.91009C6.26639 1.75381 6.05443 1.66602 5.83341 1.66602C5.6124 1.66602 5.40044 1.75381 5.24416 1.91009C5.08788 2.06637 5.00008 2.27834 5.00008 2.49935V3.33268H4.16675C3.50371 3.33268 2.86782 3.59607 2.39898 4.06492C1.93014 4.53376 1.66675 5.16964 1.66675 5.83268V15.8327C1.66675 16.4957 1.93014 17.1316 2.39898 17.6004C2.86782 18.0693 3.50371 18.3327 4.16675 18.3327H15.8334C16.4965 18.3327 17.1323 18.0693 17.6012 17.6004C18.07 17.1316 18.3334 16.4957 18.3334 15.8327V5.83268C18.3334 5.16964 18.07 4.53376 17.6012 4.06492C17.1323 3.59607 16.4965 3.33268 15.8334 3.33268ZM16.6667 15.8327C16.6667 16.0537 16.579 16.2657 16.4227 16.4219C16.2664 16.5782 16.0544 16.666 15.8334 16.666H4.16675C3.94573 16.666 3.73377 16.5782 3.57749 16.4219C3.42121 16.2657 3.33341 16.0537 3.33341 15.8327V8.33268H16.6667V15.8327ZM16.6667 6.66602H3.33341V5.83268C3.33341 5.61167 3.42121 5.39971 3.57749 5.24343C3.73377 5.08715 3.94573 4.99935 4.16675 4.99935H15.8334C16.0544 4.99935 16.2664 5.08715 16.4227 5.24343C16.579 5.39971 16.6667 5.61167 16.6667 5.83268V6.66602ZM5.83341 14.9993C5.99823 14.9993 6.15935 14.9505 6.29639 14.8589C6.43343 14.7673 6.54024 14.6372 6.60331 14.4849C6.66639 14.3326 6.68289 14.1651 6.65074 14.0034C6.61858 13.8418 6.53921 13.6933 6.42267 13.5768C6.30613 13.4602 6.15764 13.3808 5.99599 13.3487C5.83434 13.3165 5.66678 13.333 5.51451 13.3961C5.36224 13.4592 5.23209 13.566 5.14052 13.703C5.04896 13.8401 5.00008 14.0012 5.00008 14.166C5.00008 14.387 5.08788 14.599 5.24416 14.7553C5.40044 14.9116 5.6124 14.9993 5.83341 14.9993Z" fill="#0D0C12"/>
</svg>
