<svg xmlns="http://www.w3.org/2000/svg" width="30" height="30" viewBox="0 0 30 30" fill="none">
  <path d="M15.5096 7.28027C14.6321 8.27027 14.0721 9.15027 13.7408 9.98777L16.4321 12.6828C16.5492 12.8 16.615 12.9589 16.615 13.1246C16.615 13.2904 16.5492 13.4493 16.4321 13.5665L13.5658 16.4328C13.4486 16.55 13.3828 16.7089 13.3828 16.8746C13.3828 17.0404 13.4486 17.1993 13.5658 17.3165L14.9983 18.7503" stroke="#801323" stroke-width="2" stroke-linecap="round" stroke-linejoin="round"/>
  <path d="M16.885 25.3914C16.6521 25.6589 16.3649 25.8738 16.0426 26.0218C15.7202 26.1698 15.3701 26.2475 15.0154 26.2497C14.6607 26.252 14.3096 26.1787 13.9854 26.0348C13.6612 25.8909 13.3713 25.6797 13.135 25.4151L6.25 18.7501C4.375 16.8751 2.5 14.7501 2.5 11.8751C2.49977 10.484 2.92156 9.1256 3.70964 7.97925C4.49771 6.83291 5.61501 5.9526 6.91393 5.45462C8.21285 4.95664 9.63228 4.86442 10.9847 5.19013C12.3371 5.51584 13.559 6.24417 14.4888 7.2789C14.6274 7.40841 14.81 7.48055 14.9998 7.48078C15.1895 7.48101 15.3723 7.40932 15.5113 7.28015C16.441 6.2455 17.6627 5.5172 19.015 5.19145C20.3673 4.8657 21.7866 4.95782 23.0855 5.45565C24.3844 5.95347 25.5017 6.83358 26.2898 7.97973C27.078 9.12588 27.5 10.4842 27.5 11.8751C27.5 14.7376 25.625 16.8751 23.75 18.7501L16.885 25.3914Z" stroke="#801323" stroke-width="2" stroke-linecap="round" stroke-linejoin="round"/>
</svg>