<svg width="50" height="50" viewBox="0 0 50 50" fill="none" xmlns="http://www.w3.org/2000/svg">
<path fill-rule="evenodd" clip-rule="evenodd" d="M19.6389 9.49543C11.7945 14.5332 7.43659 20.3967 6.56517 27.086C5.20855 37.4996 14.5213 42.5968 19.2399 38.017C23.9585 33.4372 21.13 27.6242 17.7132 26.0353C14.2965 24.4462 12.207 24.9996 12.5715 22.8762C12.9359 20.7529 17.797 14.8656 22.0676 12.1238C22.3509 11.8829 22.4588 11.4154 22.1859 11.0607C22.0065 10.8274 21.6545 10.37 21.13 9.6883C20.6714 9.09218 20.232 9.11449 19.6389 9.49543Z" fill="#801323"/>
<path fill-rule="evenodd" clip-rule="evenodd" d="M40.2905 9.49543C32.4463 14.5332 28.0883 20.3967 27.2169 27.086C25.8603 37.4996 35.173 42.5968 39.8917 38.017C44.6103 33.4372 41.7818 27.6242 38.365 26.0353C34.9482 24.4462 32.8586 24.9996 33.2232 22.8762C33.5877 20.7529 38.4488 14.8656 42.7194 12.1238C43.0027 11.8829 43.1105 11.4154 42.8376 11.0607C42.6582 10.8274 42.3062 10.37 41.7818 9.6883C41.3231 9.09218 40.8838 9.11449 40.2905 9.49543Z" fill="#801323"/>
</svg>
