<svg width="20" height="21" viewBox="0 0 20 21" fill="none" xmlns="http://www.w3.org/2000/svg">
<path d="M5.625 4.25C5.12772 4.25 4.65081 4.44754 4.29917 4.79917C3.94754 5.15081 3.75 5.62772 3.75 6.125V14.875C3.75 15.3723 3.94754 15.8492 4.29917 16.2008C4.65081 16.5525 5.12772 16.75 5.625 16.75H14.375C14.8723 16.75 15.3492 16.5525 15.7008 16.2008C16.0525 15.8492 16.25 15.3723 16.25 14.875V12.0875C16.25 11.9217 16.3158 11.7628 16.4331 11.6456C16.5503 11.5283 16.7092 11.4625 16.875 11.4625C17.0408 11.4625 17.1997 11.5283 17.3169 11.6456C17.4342 11.7628 17.5 11.9217 17.5 12.0875V14.875C17.5 15.7038 17.1708 16.4987 16.5847 17.0847C15.9987 17.6708 15.2038 18 14.375 18H5.625C4.7962 18 4.00134 17.6708 3.41529 17.0847C2.82924 16.4987 2.5 15.7038 2.5 14.875V6.125C2.5 5.2962 2.82924 4.50134 3.41529 3.91529C4.00134 3.32924 4.7962 3 5.625 3H8.4125C8.57826 3 8.73723 3.06585 8.85444 3.18306C8.97165 3.30027 9.0375 3.45924 9.0375 3.625C9.0375 3.79076 8.97165 3.94973 8.85444 4.06694C8.73723 4.18415 8.57826 4.25 8.4125 4.25H5.625ZM10.9625 3.625C10.9625 3.45924 11.0283 3.30027 11.1456 3.18306C11.2628 3.06585 11.4217 3 11.5875 3H16.875C17.0408 3 17.1997 3.06585 17.3169 3.18306C17.4342 3.30027 17.5 3.45924 17.5 3.625V8.9125C17.5 9.07826 17.4342 9.23723 17.3169 9.35444C17.1997 9.47165 17.0408 9.5375 16.875 9.5375C16.7092 9.5375 16.5503 9.47165 16.4331 9.35444C16.3158 9.23723 16.25 9.07826 16.25 8.9125V5.135L12.0288 9.355C11.9711 9.41469 11.9021 9.46231 11.8259 9.49506C11.7496 9.52782 11.6676 9.54506 11.5846 9.54578C11.5016 9.5465 11.4193 9.53069 11.3425 9.49926C11.2657 9.46784 11.1959 9.42143 11.1373 9.36275C11.0786 9.30406 11.0322 9.23428 11.0007 9.15747C10.9693 9.08066 10.9535 8.99836 10.9542 8.91537C10.9549 8.83239 10.9722 8.75037 11.0049 8.67412C11.0377 8.59787 11.0853 8.5289 11.145 8.47125L15.3663 4.25H11.5863C11.4205 4.25 11.2615 4.18415 11.1443 4.06694C11.0271 3.94973 10.9613 3.79076 10.9613 3.625" fill="#801323"/>
</svg>
