<svg width="20" height="20" viewBox="0 0 20 20" fill="none" xmlns="http://www.w3.org/2000/svg">
<path d="M6.04175 5.83398C6.04175 5.66822 6.1076 5.50925 6.22481 5.39204C6.34202 5.27483 6.50099 5.20898 6.66675 5.20898H13.3334C13.4992 5.20898 13.6581 5.27483 13.7754 5.39204C13.8926 5.50925 13.9584 5.66822 13.9584 5.83398C13.9584 5.99974 13.8926 6.15872 13.7754 6.27593C13.6581 6.39314 13.4992 6.45898 13.3334 6.45898H6.66675C6.50099 6.45898 6.34202 6.39314 6.22481 6.27593C6.1076 6.15872 6.04175 5.99974 6.04175 5.83398ZM6.66675 8.12565C6.50099 8.12565 6.34202 8.1915 6.22481 8.30871C6.1076 8.42592 6.04175 8.58489 6.04175 8.75065C6.04175 8.91641 6.1076 9.07538 6.22481 9.19259C6.34202 9.3098 6.50099 9.37565 6.66675 9.37565H10.8334C10.9992 9.37565 11.1581 9.3098 11.2754 9.19259C11.3926 9.07538 11.4584 8.91641 11.4584 8.75065C11.4584 8.58489 11.3926 8.42592 11.2754 8.30871C11.1581 8.1915 10.9992 8.12565 10.8334 8.12565H6.66675Z" fill="#0D0C12"/>
<path fill-rule="evenodd" clip-rule="evenodd" d="M8.28742 1.04102C7.14825 1.04102 6.22908 1.04102 5.50659 1.13852C4.75659 1.23852 4.12492 1.45518 3.62325 1.95602C3.12159 2.45768 2.90659 3.08935 2.80575 3.83935C2.70825 4.56185 2.70825 5.48102 2.70825 6.62018V13.3785C2.70825 14.5177 2.70825 15.4368 2.80575 16.1593C2.90575 16.9093 3.12242 17.541 3.62325 18.0427C4.12492 18.5443 4.75659 18.7593 5.50659 18.861C6.22908 18.9577 7.14825 18.9577 8.28742 18.9577H11.7124C12.8516 18.9577 13.7708 18.9577 14.4933 18.861C15.2433 18.7593 15.8749 18.5443 16.3766 18.0427C16.8783 17.541 17.0933 16.9093 17.1949 16.1593C17.2916 15.4368 17.2916 14.5177 17.2916 13.3785V6.62018C17.2916 5.48102 17.2916 4.56185 17.1949 3.83935C17.0933 3.08935 16.8783 2.45768 16.3766 1.95602C15.8749 1.45435 15.2433 1.23935 14.4933 1.13852C13.7708 1.04102 12.8516 1.04102 11.7124 1.04102H8.28742ZM4.50825 2.84018C4.73909 2.60935 5.06242 2.45935 5.67492 2.37685C6.30325 2.29268 7.13825 2.29102 8.33409 2.29102H11.6674C12.8633 2.29102 13.6974 2.29268 14.3274 2.37685C14.9391 2.45935 15.2624 2.61018 15.4933 2.84018C15.7241 3.07102 15.8741 3.39435 15.9566 4.00685C16.0408 4.63518 16.0424 5.47018 16.0424 6.66602V12.7077H6.48492C5.80325 12.7077 5.33825 12.7077 4.93909 12.8143C4.58836 12.9092 4.25658 13.0637 3.95825 13.271V6.66602C3.95825 5.47018 3.95992 4.63518 4.04409 4.00602C4.12659 3.39435 4.27825 3.07102 4.50825 2.84018ZM3.98075 15.2068C3.99325 15.5018 4.01325 15.761 4.04409 15.9927C4.12659 16.6043 4.27742 16.9277 4.50742 17.1585C4.73825 17.3893 5.06159 17.5393 5.67409 17.6218C6.30242 17.706 7.13742 17.7077 8.33325 17.7077H11.6666C12.8624 17.7077 13.6966 17.706 14.3266 17.6218C14.9383 17.5393 15.2616 17.3885 15.4924 17.1585C15.7233 16.9277 15.8733 16.6043 15.9558 15.9918C16.0249 15.4793 16.0383 14.8293 16.0408 13.9577H6.58158C5.76659 13.9577 5.48159 13.9627 5.26242 14.0218C4.96871 14.1006 4.69856 14.2497 4.47528 14.4561C4.252 14.6626 4.08228 14.9202 3.98075 15.2068Z" fill="#0D0C12"/>
</svg>
