<svg width="21" height="20" viewBox="0 0 21 20" fill="none" xmlns="http://www.w3.org/2000/svg">
<path d="M7.375 16.875C7.72018 16.875 8 16.5952 8 16.25C8 15.9048 7.72018 15.625 7.375 15.625C7.02982 15.625 6.75 15.9048 6.75 16.25C6.75 16.5952 7.02982 16.875 7.375 16.875Z" stroke="black" stroke-width="1.25" stroke-linecap="round" stroke-linejoin="round"/>
<path d="M16.125 16.875C16.4702 16.875 16.75 16.5952 16.75 16.25C16.75 15.9048 16.4702 15.625 16.125 15.625C15.7798 15.625 15.5 15.9048 15.5 16.25C15.5 16.5952 15.7798 16.875 16.125 16.875Z" stroke="black" stroke-width="1.25" stroke-linecap="round" stroke-linejoin="round"/>
<path d="M2.375 3.125H4.875L6.75 13.75H16.75" stroke="black" stroke-width="1.25" stroke-linecap="round" stroke-linejoin="round"/>
<path d="M6.75 11.25H16.4938C16.566 11.2501 16.6361 11.225 16.692 11.1793C16.7479 11.1335 16.7862 11.0697 16.8004 10.9988L17.9254 5.37383C17.9345 5.32847 17.9334 5.28166 17.9222 5.23678C17.9109 5.19191 17.8899 5.15008 17.8606 5.11431C17.8312 5.07855 17.7943 5.04974 17.7525 5.02997C17.7107 5.0102 17.665 4.99997 17.6187 5H5.5" stroke="black" stroke-width="1.25" stroke-linecap="round" stroke-linejoin="round"/>
</svg>
