<svg width="20" height="20" viewBox="0 0 20 20" fill="none" xmlns="http://www.w3.org/2000/svg">
<path d="M15.3667 2.5498H4.63332C4.08126 2.55134 3.55225 2.77133 3.16188 3.1617C2.77151 3.55207 2.55153 4.08108 2.54999 4.63314V15.3665C2.55153 15.9185 2.77151 16.4475 3.16188 16.8379C3.55225 17.2283 4.08126 17.4483 4.63332 17.4498H15.3667C15.9192 17.4498 16.4491 17.2303 16.8398 16.8396C17.2305 16.4489 17.45 15.919 17.45 15.3665V4.63314C17.45 4.0806 17.2305 3.5507 16.8398 3.16C16.4491 2.7693 15.9192 2.5498 15.3667 2.5498ZM16.6167 15.3665C16.6145 15.6973 16.4821 16.014 16.2481 16.2479C16.0142 16.4819 15.6975 16.6143 15.3667 16.6165H4.63332C4.30247 16.6143 3.9858 16.4819 3.75185 16.2479C3.5179 16.014 3.3855 15.6973 3.38332 15.3665V4.63314C3.3855 4.30229 3.5179 3.98562 3.75185 3.75167C3.9858 3.51772 4.30247 3.38532 4.63332 3.38314H15.3667C15.6975 3.38532 16.0142 3.51772 16.2481 3.75167C16.4821 3.98562 16.6145 4.30229 16.6167 4.63314V15.3665Z" fill="#0D0C12"/>
<path d="M5.31335 8.95638C5.31335 8.73537 5.40115 8.52341 5.55743 8.36712C5.71371 8.21084 5.92567 8.12305 6.14669 8.12305C6.3677 8.12305 6.57966 8.21084 6.73594 8.36712C6.89222 8.52341 6.98002 8.73537 6.98002 8.95638V14.373C6.98002 14.5941 6.89222 14.806 6.73594 14.9623C6.57966 15.1186 6.3677 15.2064 6.14669 15.2064C5.92567 15.2064 5.71371 15.1186 5.55743 14.9623C5.40115 14.806 5.31335 14.5941 5.31335 14.373V8.95638Z" fill="#0D0C12"/>
<path d="M6.14669 6.45378C6.60693 6.45378 6.98002 6.08068 6.98002 5.62044C6.98002 5.16021 6.60693 4.78711 6.14669 4.78711C5.68645 4.78711 5.31335 5.16021 5.31335 5.62044C5.31335 6.08068 5.68645 6.45378 6.14669 6.45378Z" fill="#0D0C12"/>
<path d="M14.6833 11.142V14.3753C14.6833 14.5963 14.5955 14.8083 14.4392 14.9646C14.283 15.1208 14.071 15.2086 13.85 15.2086C13.629 15.2086 13.417 15.1208 13.2607 14.9646C13.1045 14.8083 13.0167 14.5963 13.0167 14.3753V11.142C13.0167 10.785 12.8749 10.4427 12.6225 10.1903C12.3701 9.93792 12.0278 9.79613 11.6708 9.79613C11.3139 9.79613 10.9716 9.93792 10.7192 10.1903C10.4668 10.4427 10.325 10.785 10.325 11.142V14.3753C10.325 14.5963 10.2372 14.8083 10.0809 14.9646C9.92463 15.1208 9.71267 15.2086 9.49166 15.2086C9.27064 15.2086 9.05868 15.1208 8.9024 14.9646C8.74612 14.8083 8.65833 14.5963 8.65833 14.3753V8.95863C8.66176 8.73869 8.75066 8.52871 8.9062 8.37317C9.06175 8.21763 9.27172 8.12873 9.49166 8.12529C9.6328 8.12143 9.77237 8.15579 9.89559 8.22473C10.0188 8.29368 10.1211 8.39465 10.1917 8.51696C10.6499 8.25726 11.1683 8.12241 11.6949 8.1259C12.2216 8.12939 12.7382 8.2711 13.1929 8.53686C13.6476 8.80261 14.0246 9.1831 14.2862 9.64027C14.5477 10.0974 14.6847 10.6153 14.6833 11.142Z" fill="#0D0C12"/>
</svg>
