<svg width="20" height="20" viewBox="0 0 20 20" fill="none" xmlns="http://www.w3.org/2000/svg">
<path fill-rule="evenodd" clip-rule="evenodd" d="M5.48593 2.40998C7.163 1.28959 9.19684 0.833007 11.1919 1.12903C13.1869 1.42505 15.0006 2.45251 16.2801 4.01159C17.5596 5.57067 18.2135 7.54991 18.1146 9.56438C18.0157 11.5789 17.1711 13.4845 15.7451 14.9108C15.6266 15.0212 15.4699 15.0813 15.308 15.0785C15.1461 15.0756 14.9916 15.01 14.8771 14.8955C14.7626 14.781 14.697 14.6265 14.6941 14.4646C14.6913 14.3027 14.7514 14.146 14.8618 14.0275C15.8232 13.066 16.4779 11.8409 16.7431 10.5074C17.0083 9.17376 16.8721 7.79147 16.3517 6.53528C15.8313 5.27909 14.9501 4.20541 13.8195 3.45001C12.689 2.69462 11.3598 2.29143 10.0001 2.29143C8.64038 2.29143 7.31121 2.69462 6.18064 3.45001C5.05007 4.20541 4.16888 5.27909 3.6485 6.53528C3.12813 7.79147 2.99193 9.17376 3.25713 10.5074C3.52233 11.8409 4.17703 13.066 5.13843 14.0275C5.24883 14.146 5.30893 14.3027 5.30607 14.4646C5.30321 14.6265 5.23762 14.781 5.12311 14.8955C5.0086 15.01 4.85411 15.0756 4.69219 15.0785C4.53028 15.0813 4.37357 15.0212 4.25509 14.9108C3.40573 14.0613 2.7553 13.0341 2.35063 11.903C1.94596 10.772 1.79712 9.56526 1.91484 8.36978C2.03255 7.17429 2.41389 6.01978 3.03139 4.98938C3.64889 3.95898 4.48719 3.07832 5.48593 2.41081M7.60426 5.01581C8.51778 4.48818 9.57989 4.27678 10.6258 4.41439C11.6718 4.552 12.643 5.03093 13.389 5.77689C14.135 6.52285 14.6139 7.49414 14.7515 8.54007C14.8891 9.58601 14.6777 10.6481 14.1501 11.5616C14.0672 11.7053 13.9307 11.8102 13.7705 11.8531C13.6103 11.8961 13.4396 11.8737 13.2959 11.7908C13.1523 11.7079 13.0474 11.5714 13.0044 11.4112C12.9615 11.251 12.9839 11.0803 13.0668 10.9366C13.3778 10.3983 13.5416 9.78747 13.5418 9.16569C13.5419 8.54392 13.3783 7.93306 13.0675 7.39454C12.7567 6.85602 12.3096 6.40882 11.7711 6.09789C11.2327 5.78696 10.6219 5.62327 10.0001 5.62327C9.37831 5.62327 8.76749 5.78696 8.22904 6.09789C7.69059 6.40882 7.24348 6.85602 6.93267 7.39454C6.62185 7.93306 6.45829 8.54392 6.45843 9.16569C6.45856 9.78747 6.62238 10.3983 6.93343 10.9366C7.01631 11.0803 7.03872 11.251 6.99575 11.4112C6.95277 11.5714 6.84792 11.7079 6.70426 11.7908C6.5606 11.8737 6.3899 11.8961 6.22971 11.8531C6.06953 11.8102 5.93297 11.7053 5.85009 11.5616C5.53543 11.0167 5.3312 10.415 5.24907 9.79114C5.16693 9.16723 5.2085 8.53325 5.37139 7.9254C5.53428 7.31755 5.81531 6.74775 6.19843 6.24852C6.58154 5.74929 7.05925 5.33041 7.60426 5.01581ZM10.0001 8.54081C9.83433 8.54081 9.67536 8.60666 9.55815 8.72387C9.44094 8.84108 9.37509 9.00005 9.37509 9.16581C9.37509 9.33157 9.44094 9.49054 9.55815 9.60775C9.67536 9.72496 9.83433 9.79081 10.0001 9.79081C10.1659 9.79081 10.3248 9.72496 10.442 9.60775C10.5592 9.49054 10.6251 9.33157 10.6251 9.16581C10.6251 9.00005 10.5592 8.84108 10.442 8.72387C10.3248 8.60666 10.1659 8.54081 10.0001 8.54081ZM8.12509 9.16581C8.12509 8.66853 8.32264 8.19162 8.67427 7.83999C9.0259 7.48836 9.50281 7.29081 10.0001 7.29081C10.4974 7.29081 10.9743 7.48836 11.3259 7.83999C11.6775 8.19162 11.8751 8.66853 11.8751 9.16581C11.8751 9.66309 11.6775 10.14 11.3259 10.4916C10.9743 10.8433 10.4974 11.0408 10.0001 11.0408C9.50281 11.0408 9.0259 10.8433 8.67427 10.4916C8.32264 10.14 8.12509 9.66309 8.12509 9.16581ZM10.0001 13.1241C9.83433 13.1241 9.67536 13.19 9.55815 13.3072C9.44094 13.4244 9.37509 13.5834 9.37509 13.7491V17.0825C9.37509 17.2482 9.44094 17.4072 9.55815 17.5244C9.67536 17.6416 9.83433 17.7075 10.0001 17.7075C10.1659 17.7075 10.3248 17.6416 10.442 17.5244C10.5592 17.4072 10.6251 17.2482 10.6251 17.0825V13.7491C10.6251 13.5834 10.5592 13.4244 10.442 13.3072C10.3248 13.19 10.1659 13.1241 10.0001 13.1241ZM8.12509 13.7491C8.12509 13.2519 8.32264 12.775 8.67427 12.4233C9.0259 12.0717 9.50281 11.8741 10.0001 11.8741C10.4974 11.8741 10.9743 12.0717 11.3259 12.4233C11.6775 12.775 11.8751 13.2519 11.8751 13.7491V17.0825C11.8751 17.5798 11.6775 18.0567 11.3259 18.4083C10.9743 18.7599 10.4974 18.9575 10.0001 18.9575C9.50281 18.9575 9.0259 18.7599 8.67427 18.4083C8.32264 18.0567 8.12509 17.5798 8.12509 17.0825V13.7491Z" fill="#0D0C12"/>
</svg>
