<svg width="20" height="20" viewBox="0 0 20 20" fill="none" xmlns="http://www.w3.org/2000/svg">
<path d="M18.7833 5.34967C18.6792 4.95991 18.4748 4.60423 18.1904 4.31809C17.906 4.03195 17.5516 3.82533 17.1625 3.71884C15.7333 3.33301 9.99998 3.33301 9.99998 3.33301C9.99998 3.33301 4.26665 3.33301 2.83748 3.71884C2.44836 3.82533 2.09395 4.03195 1.80956 4.31809C1.52517 4.60423 1.32074 4.95991 1.21665 5.34967C0.833313 6.78967 0.833313 9.79134 0.833313 9.79134C0.833313 9.79134 0.833313 12.793 1.21665 14.233C1.32062 14.6229 1.52499 14.9788 1.80938 15.2651C2.09378 15.5514 2.44826 15.7581 2.83748 15.8647C4.26748 16.2497 9.99998 16.2497 9.99998 16.2497C9.99998 16.2497 15.7333 16.2497 17.1625 15.8647C17.5517 15.7581 17.9062 15.5514 18.1906 15.2651C18.475 14.9788 18.6793 14.6229 18.7833 14.233C19.1666 12.7947 19.1666 9.79134 19.1666 9.79134C19.1666 9.79134 19.1666 6.78967 18.7833 5.34967ZM8.12498 12.5172V7.06634L12.9166 9.79218L8.12498 12.5172Z" stroke="#0D0C12" stroke-width="1.5" stroke-miterlimit="10" stroke-linejoin="round"/>
</svg>
