<svg width="20" height="20" viewBox="0 0 20 20" fill="none" xmlns="http://www.w3.org/2000/svg">
<path d="M5.83301 9.16602H14.1663V10.8327H5.83301V9.16602Z" fill="#801323"/>
<path d="M10.0003 1.66602C5.40533 1.66602 1.66699 5.40435 1.66699 9.99935C1.66699 14.5943 5.40533 18.3327 10.0003 18.3327C14.5953 18.3327 18.3337 14.5943 18.3337 9.99935C18.3337 5.40435 14.5953 1.66602 10.0003 1.66602ZM10.0003 16.666C6.32449 16.666 3.33366 13.6752 3.33366 9.99935C3.33366 6.32352 6.32449 3.33268 10.0003 3.33268C13.6762 3.33268 16.667 6.32352 16.667 9.99935C16.667 13.6752 13.6762 16.666 10.0003 16.666Z" fill="#801323"/>
</svg>
