<svg width="20" height="21" viewBox="0 0 20 21" fill="none" xmlns="http://www.w3.org/2000/svg">
<path d="M10.833 6.33398H9.16634V9.66732H5.83301V11.334H9.16634V14.6673H10.833V11.334H14.1663V9.66732H10.833V6.33398Z" fill="#801323"/>
<path d="M10.0003 2.16602C5.40533 2.16602 1.66699 5.90435 1.66699 10.4993C1.66699 15.0943 5.40533 18.8327 10.0003 18.8327C14.5953 18.8327 18.3337 15.0943 18.3337 10.4993C18.3337 5.90435 14.5953 2.16602 10.0003 2.16602ZM10.0003 17.166C6.32449 17.166 3.33366 14.1752 3.33366 10.4993C3.33366 6.82352 6.32449 3.83268 10.0003 3.83268C13.6762 3.83268 16.667 6.82352 16.667 10.4993C16.667 14.1752 13.6762 17.166 10.0003 17.166Z" fill="#801323"/>
</svg>
